<svg width="133" height="49" viewBox="0 0 133 49" fill="none" xmlns="http://www.w3.org/2000/svg">
<g clip-path="url(#clip0_1_306)">
<path d="M32.0016 24.8183L30.8598 31.4511H27.4557L29.8892 17.4264H33.2924L32.1692 23.8887L38.105 17.4264H42.0071L35.6547 24.3116L39.8263 31.4549H35.6753L32.0016 24.8183Z" fill="white"/>
<path d="M51.8331 28.7577C51.4632 29.4131 50.9653 29.9846 50.3702 30.4368C49.7694 30.8834 49.0892 31.2068 48.3672 31.3893C47.5559 31.5932 46.7226 31.6924 45.8869 31.6845C45.0819 31.6967 44.2789 31.5974 43.5002 31.3893C42.8076 31.1918 42.246 30.8743 41.8155 30.4368C41.3722 29.974 41.0694 29.391 40.9432 28.7577C40.7909 28.0751 40.7978 27.255 40.9638 26.2975C41.1298 25.34 41.4065 24.5196 41.794 23.8364C42.1569 23.1817 42.6524 22.613 43.2475 22.1677C43.8515 21.7268 44.5307 21.4039 45.2505 21.2153C46.0607 21.0043 46.8945 20.9016 47.7308 20.9096C48.5365 20.8972 49.3399 21.0001 50.1175 21.2153C50.8088 21.4204 51.3726 21.7379 51.8087 22.1677C52.2586 22.623 52.5657 23.2036 52.6913 23.8364C52.843 24.519 52.8361 25.3394 52.6707 26.2975C52.5054 27.2557 52.2262 28.0758 51.8331 28.7577ZM49.2704 26.2975C49.422 25.368 49.3391 24.6695 49.0214 24.2021C48.7039 23.7348 48.1295 23.5031 47.2983 23.5068C45.6523 23.5068 44.6767 24.4364 44.3716 26.2956C44.039 28.1535 44.6895 29.0828 46.3231 29.0834C47.9567 29.0841 48.9391 28.1554 49.2704 26.2975Z" fill="white"/>
<path d="M55.2885 31.2711C54.9339 31.1835 54.6163 30.9823 54.3826 30.6971C54.1488 30.412 54.0113 30.0579 53.9903 29.6872C53.9477 29.1747 53.9792 28.6588 54.0839 28.1557L55.9559 17.4264H59.315L57.4674 27.9832C57.4122 28.3204 57.4431 28.5604 57.561 28.7014C57.679 28.8423 57.9036 28.9119 58.2349 28.9119H59.0239L58.5878 31.4473H56.7617C56.2648 31.4612 55.7687 31.4019 55.2885 31.2711Z" fill="white"/>
<path d="M61.5143 31.2711C61.159 31.1844 60.8405 30.9836 60.6062 30.6983C60.3718 30.413 60.2341 30.0584 60.2133 29.6872C60.1697 29.1748 60.2013 28.6586 60.3069 28.1557L62.1789 17.4264H65.5408L63.6942 27.9832C63.638 28.3204 63.6699 28.5604 63.7878 28.7014C63.9057 28.8423 64.1303 28.9119 64.4626 28.9119H65.2516L64.8155 31.4473H62.9875C62.4907 31.4611 61.9945 31.4017 61.5143 31.2711Z" fill="white"/>
<path d="M67.0047 30.131C66.2927 29.2503 66.0818 27.9725 66.372 26.2975C66.649 24.6212 67.2992 23.3433 68.3225 22.4639C69.3458 21.5845 70.6812 21.1444 72.3285 21.1438H76.6461L76.1893 23.6782H72.3705C71.6218 23.6782 71.0786 23.7979 70.7411 24.0373C70.4009 24.2786 70.149 24.628 70.0251 25.0307H75.8776L75.4424 27.5233H69.5889C69.5689 27.7071 69.591 27.8933 69.6533 28.0671C69.7156 28.2409 69.8166 28.3976 69.9483 28.5252C70.2191 28.7862 70.7276 28.9164 71.4739 28.9157H75.3769L74.9417 31.4511H70.5426C68.8985 31.4511 67.7192 31.0111 67.0047 30.131Z" fill="white"/>
<path d="M85.1562 25.4526C85.2523 24.8615 85.1933 24.4319 84.9793 24.164C84.7652 23.8961 84.3676 23.7621 83.786 23.7621H81.6688L80.3378 31.4511H76.9788L78.7636 21.1438H85.0347C86.5153 21.1438 87.5322 21.4851 88.0858 22.1677C88.639 22.8503 88.7844 23.9452 88.5221 25.4526L87.4839 31.453H84.1185L85.1562 25.4526Z" fill="white"/>
<path d="M100.858 28.7577C100.487 29.4129 99.9894 29.9844 99.394 30.4368C98.7935 30.8834 98.1132 31.2068 97.3913 31.3893C96.5798 31.5933 95.7465 31.6925 94.9106 31.6845C94.1057 31.6967 93.3029 31.5974 92.524 31.3893C91.832 31.1918 91.2707 30.8743 90.8395 30.4368C90.3962 29.974 90.0931 29.391 89.9671 28.7577C89.8155 28.0751 89.8227 27.255 89.9884 26.2975C90.1547 25.34 90.4318 24.5196 90.8207 23.8364C91.1832 23.1818 91.6785 22.613 92.2733 22.1677C92.8774 21.7268 93.5566 21.4039 94.2761 21.2153C95.0865 21.0044 95.9204 20.9016 96.7567 20.9096C97.5621 20.8972 98.3654 21.0001 99.1433 21.2153C99.7758 21.3864 100.357 21.7136 100.835 22.1677C101.285 22.623 101.592 23.2037 101.717 23.8364C101.87 24.519 101.862 25.3394 101.697 26.2975C101.53 27.2557 101.251 28.0758 100.858 28.7577ZM98.2943 26.2975C98.4473 25.368 98.3644 24.6695 98.0451 24.2021C97.7263 23.7348 97.1523 23.5031 96.322 23.5068C94.6762 23.5068 93.7005 24.4364 93.3955 26.2956C93.064 28.1535 93.7148 29.0828 95.3468 29.0834C96.9794 29.0841 97.9617 28.1554 98.2943 26.2975Z" fill="white"/>
<path d="M104.263 31.4511C105.368 31.4511 106.264 30.5394 106.264 29.4148C106.264 28.2901 105.368 27.3784 104.263 27.3784C103.158 27.3784 102.262 28.2901 102.262 29.4148C102.262 30.5394 103.158 31.4511 104.263 31.4511Z" fill="#2D9FF7"/>
</g>
<defs>
<clipPath id="clip0_1_306">
<rect width="78.8079" height="14.259" fill="white" transform="translate(27.4557 17.4264)"/>
</clipPath>
</defs>
</svg>
