<svg width="134" height="49" viewBox="0 0 134 49" fill="none" xmlns="http://www.w3.org/2000/svg">
<g clip-path="url(#clip0_1_316)">
<path fill-rule="evenodd" clip-rule="evenodd" d="M36.2707 18.1738C36.6814 17.3909 37.4885 16.8617 38.4252 16.8617C39.7656 16.8617 40.8537 17.9564 40.8537 19.3048V29.0915C40.8537 30.4399 39.7656 31.5345 38.4252 31.5345C37.4957 31.5345 36.6886 31.0053 36.2779 30.2296L36.2346 30.1499C35.7302 29.1785 34.7214 28.5115 33.5612 28.5115C32.3939 28.5115 31.385 29.1785 30.8878 30.1499L30.8446 30.2296C30.4411 31.0053 29.6268 31.5345 28.6972 31.5345C27.3569 31.5345 26.2688 30.4399 26.2688 29.0915V19.3048C26.2688 17.9564 27.3569 16.8617 28.6972 16.8617C29.634 16.8617 30.4483 17.3909 30.859 18.1738L30.895 18.2536C31.3922 19.225 32.4011 19.892 33.5612 19.892C34.7286 19.892 35.7374 19.225 36.2346 18.2536C36.2346 18.2536 36.2563 18.2028 36.2707 18.1738ZM31.1328 24.1981C31.1328 25.5465 32.2209 26.6412 33.5612 26.6412C34.9016 26.6412 35.9896 25.5465 35.9896 24.1981C35.9896 22.8497 34.9016 21.7551 33.5612 21.7551C32.2209 21.7551 31.1328 22.8497 31.1328 24.1981Z" fill="#FF5656"/>
<path d="M57.0987 19.499V28.4655H55.0512V24.6746H51.486V28.4655H49.4385V19.499H51.486V23.2468H55.0512V19.499H57.0987Z" fill="white"/>
<path d="M61.0907 21.0991V23.1915H63.8489V24.73H61.0907V26.8655H64.692V28.4655H59.0432V19.499H64.692V21.0991H61.0907Z" fill="white"/>
<path d="M70.3915 25.0561V28.4655H68.356V25.0561L65.1762 19.499H66.9708C67.1475 19.499 67.286 19.5421 67.3864 19.6283C67.4908 19.7103 67.5771 19.817 67.6453 19.9483L68.8859 22.5576C68.9903 22.7627 69.0846 22.9555 69.169 23.1361C69.2533 23.3125 69.3275 23.4868 69.3918 23.6591C69.452 23.4828 69.5203 23.3063 69.5965 23.1299C69.6768 22.9494 69.7691 22.7586 69.8736 22.5576L71.1021 19.9483C71.1302 19.8949 71.1643 19.8416 71.2044 19.7883C71.2446 19.7349 71.2908 19.6877 71.343 19.6467C71.3992 19.6016 71.4614 19.5667 71.5296 19.5421C71.6019 19.5134 71.6802 19.499 71.7645 19.499H73.5712L70.3915 25.0561Z" fill="white"/>
<path d="M80.8031 21.1483H78.3342V28.4655H76.2987V21.1483H73.8296V19.499H80.8031V21.1483Z" fill="white"/>
<path d="M84.1252 21.0991V23.1915H86.8835V24.73H84.1252V26.8655H87.7266V28.4655H82.0778V19.499H87.7266V21.0991H84.1252Z" fill="white"/>
<path d="M93.8593 25.0377L93.0462 22.5822C92.9862 22.4263 92.9219 22.2437 92.854 22.0345C92.7856 21.8212 92.7171 21.5914 92.6492 21.3452C92.5886 21.5955 92.5244 21.8273 92.4564 22.0407C92.388 22.254 92.3237 22.4386 92.2637 22.5945L91.4564 25.0377H93.8593ZM97.0936 28.4655H95.5154C95.339 28.4655 95.1963 28.4245 95.0878 28.3424C94.9794 28.2563 94.8972 28.1476 94.8409 28.0163L94.3232 26.4531H90.9867L90.4691 28.0163C90.4248 28.1311 90.3448 28.2357 90.2279 28.3301C90.1157 28.4203 89.9751 28.4655 89.8066 28.4655H88.2168L91.6133 19.499H93.6971L97.0936 28.4655Z" fill="white"/>
<path d="M107.892 19.499V28.4655H106.098V23.3084C106.098 23.1894 106.1 23.0602 106.103 22.9207C106.112 22.7812 106.124 22.6397 106.14 22.496L103.809 27.1054C103.737 27.2491 103.638 27.3578 103.514 27.4316C103.394 27.5054 103.255 27.5424 103.099 27.5424H102.822C102.665 27.5424 102.525 27.5054 102.4 27.4316C102.28 27.3578 102.183 27.2491 102.111 27.1054L99.7806 22.4837C99.7922 22.6314 99.8027 22.7771 99.8106 22.9207C99.8185 23.0602 99.8227 23.1894 99.8227 23.3084V28.4655H98.0281V19.499H99.5815C99.67 19.499 99.7464 19.5011 99.8106 19.5052C99.8785 19.5093 99.9391 19.5216 99.9912 19.5421C100.043 19.5626 100.09 19.5954 100.13 19.6406C100.174 19.6816 100.216 19.7411 100.256 19.819L102.515 24.3669C102.595 24.5228 102.671 24.6849 102.743 24.8531C102.82 25.0213 102.892 25.1936 102.96 25.37C103.028 25.1895 103.099 25.0131 103.171 24.8408C103.247 24.6685 103.327 24.5043 103.412 24.3484L105.664 19.819C105.704 19.7411 105.744 19.6816 105.784 19.6406C105.829 19.5954 105.877 19.5626 105.929 19.5421C105.981 19.5216 106.039 19.5093 106.103 19.5052C106.172 19.5011 106.25 19.499 106.338 19.499H107.892Z" fill="white"/>
</g>
<defs>
<clipPath id="clip0_1_316">
<rect width="81.6225" height="14.7683" fill="white" transform="translate(26.2688 16.8617)"/>
</clipPath>
</defs>
</svg>
