<svg width="133" height="49" viewBox="0 0 133 49" fill="none" xmlns="http://www.w3.org/2000/svg">
<path d="M48.6218 24.3581C48.6218 20.5145 51.4875 18.4031 54.5179 18.4526C56.8401 18.4526 59.3105 19.7062 59.8375 22.56H57.4494C56.9389 21.2568 55.9013 20.6795 54.5179 20.6795C52.4757 20.6795 51.1087 22.1641 51.1087 24.3581C51.1087 26.3375 52.4427 27.9871 54.5014 27.9871C55.9343 27.9871 57.1036 27.3108 57.4989 25.9087H59.8705C59.3764 28.9604 56.9224 30.2306 54.5179 30.2306C51.4875 30.2306 48.6218 28.1851 48.6218 24.3581Z" fill="white"/>
<path d="M63.8353 25.5622V30.1316H61.5296V18.0567H63.8353V23.2363C64.4777 22.2631 65.4329 21.9662 66.4375 22.0156C68.2162 22.0981 69.0232 23.0879 69.2703 24.589C69.3197 24.9684 69.3361 25.3313 69.3361 25.7272V27.8552C69.3361 28.5645 69.4514 28.7294 70.2255 28.68V30.0656C68.315 30.4615 67.0304 30.0656 67.0304 27.9706V26.453C67.0304 25.9252 67.0304 25.4798 66.981 25.1004C66.8493 24.2591 66.5034 23.8137 65.5317 23.8137C64.6423 23.8137 63.8353 24.4405 63.8353 25.5622Z" fill="white"/>
<path d="M79.1723 22.725V27.5582C79.1723 28.2346 79.1393 28.5975 79.9299 28.548V30.0326C78.8593 30.2635 77.3112 30.346 77.3112 28.7129C76.8665 29.7027 75.8454 30.2471 74.7914 30.2471C72.3374 30.1976 71.201 28.3005 71.201 26.0406C71.2834 23.3518 73.1115 21.9332 75.796 21.9827C76.9654 21.9992 78.1182 22.2796 79.1723 22.725ZM76.9324 26.1231V24.0611C76.4877 23.8797 76.0101 23.8302 75.6149 23.8302C74.3632 23.8302 73.5562 24.523 73.5068 26.0406C73.5068 27.2943 74.0997 28.2181 75.2855 28.2016C76.3889 28.2016 76.883 27.3273 76.9324 26.1231Z" fill="white"/>
<path d="M81.3723 19.8712C81.3723 18.1061 84.0733 18.1061 84.0733 19.8712C84.0733 21.6527 81.3723 21.6527 81.3723 19.8712ZM83.8757 22.2631V30.1151H81.57V22.2631H83.8757Z" fill="white"/>
<path d="M85.4644 23.4838V22.1311C86.6337 21.9167 88.4947 21.8012 88.4947 23.3353C89.0053 22.3951 89.944 21.9827 90.9981 21.9827C93.2379 21.9827 94.1767 23.5168 94.1273 25.4963V27.6572C94.1273 28.3995 94.1602 28.7624 94.9672 28.7129V30.0656C93.4026 30.4615 91.838 30.2635 91.838 28.2841V25.4963C91.8545 24.391 91.1463 23.8137 90.3064 23.8137C89.45 23.7642 88.643 24.4405 88.643 25.5458V30.1151H86.3372V24.622C86.3372 23.7477 86.3537 23.4343 85.4644 23.4838Z" fill="white"/>
<path d="M96.3809 18.0402H98.6537V27.0964C98.6537 28.317 99.1313 28.5645 100.235 28.383L100.317 30.1151C97.8631 30.5605 96.3809 29.9501 96.3809 27.0964V18.0402Z" fill="white"/>
<path d="M101.348 19.8712C101.348 18.1061 104.049 18.1061 104.049 19.8712C104.049 21.6527 101.348 21.6527 101.348 19.8712ZM103.851 22.2631V30.1151H101.546V22.2631H103.851Z" fill="white"/>
<path d="M109.047 19.7062V22.1806H111.632V23.9127H109.047V26.9974C109.047 28.647 110.414 28.7294 111.731 28.2511L111.945 29.9996C109.211 30.7584 106.79 30.313 106.79 27.0469V23.9127L105.292 23.7642V22.1806H106.955L107.202 19.7062H109.047Z" fill="white"/>
<path d="M27.7141 23.5366C27.5666 23.025 27.2915 22.5424 26.8889 22.1392C25.6179 20.8662 23.5573 20.8662 22.2863 22.1392C21.0153 23.4123 21.0153 25.4762 22.2863 26.7493C22.6888 27.1525 23.1706 27.428 23.6814 27.5758C23.9471 27.6606 24.2528 27.7265 24.5862 27.7984C25.6893 28.0363 27.096 28.3397 28.3618 29.6075C28.3618 29.6075 28.5459 29.1926 28.9371 28.8007C29.3284 28.4089 29.7426 28.2245 29.7426 28.2245C28.4768 26.9567 28.1739 25.5477 27.9364 24.4429C27.8646 24.1089 27.7988 23.8027 27.7141 23.5366Z" fill="url(#paint0_linear_1_324)"/>
<path d="M36.1436 25.3519C36.2912 25.8635 36.5662 26.3461 36.9688 26.7493C38.2398 28.0223 40.3005 28.0223 41.5715 26.7493C42.8425 25.4762 42.8425 23.4123 41.5715 22.1392C41.1689 21.736 40.6871 21.4605 40.1763 21.3127C39.9106 21.2279 39.6049 21.162 39.2715 21.0901C38.1684 20.8522 36.7617 20.5488 35.4959 19.281C35.4959 19.281 35.3118 19.6959 34.9206 20.0878C34.5294 20.4796 34.1151 20.664 34.1151 20.664C35.3809 21.9318 35.6838 23.3408 35.9214 24.4456C35.9932 24.7796 36.059 25.0858 36.1436 25.3519Z" fill="url(#paint1_linear_1_324)"/>
<path d="M28.8024 16.1836C28.9499 15.672 29.225 15.1894 29.6275 14.7862C30.8985 13.5132 32.9592 13.5132 34.2302 14.7862C35.5012 16.0592 35.5012 18.1232 34.2302 19.3962C33.8277 19.7995 33.3459 20.075 32.835 20.2227C32.5694 20.3075 32.2637 20.3735 31.9302 20.4454C30.8272 20.6833 29.4205 20.9867 28.1547 22.2545C28.1547 22.2545 27.9706 21.8396 27.5794 21.4477C27.1881 21.0559 26.7739 20.8715 26.7739 20.8715C28.0397 19.6036 28.3426 18.1947 28.5801 17.0899C28.6519 16.7559 28.7177 16.4497 28.8024 16.1836Z" fill="url(#paint2_linear_1_324)"/>
<path d="M35.0554 32.7049C34.9078 33.2165 34.6328 33.6991 34.2302 34.1023C32.9592 35.3753 30.8985 35.3753 29.6275 34.1023C28.3565 32.8293 28.3565 30.7653 29.6275 29.4923C30.0301 29.0891 30.5119 28.8136 31.0227 28.6658C31.2884 28.581 31.5941 28.5151 31.9275 28.4431C33.0306 28.2052 34.4373 27.9019 35.7031 26.634C35.7031 26.634 35.8872 27.0489 36.2784 27.4408C36.6696 27.8326 37.0839 28.017 37.0839 28.017C35.8181 29.2849 35.5152 30.6938 35.2776 31.7986C35.2058 32.1326 35.14 32.4388 35.0554 32.7049Z" fill="url(#paint3_linear_1_324)"/>
<path d="M27.656 23.5534L27.656 23.5534L27.6565 23.555C27.7401 23.8177 27.8053 24.1208 27.8773 24.4556L27.8779 24.4582C28.1117 25.5459 28.412 26.9426 29.6409 28.2074C29.5949 28.2314 29.5307 28.267 29.4546 28.3144C29.2993 28.4112 29.094 28.5581 28.8944 28.758C28.6947 28.958 28.5481 29.1636 28.4514 29.3192C28.4041 29.3953 28.3686 29.4596 28.3447 29.5056C27.0819 28.2748 25.6875 27.9741 24.6016 27.7399L24.599 27.7393C24.2648 27.6672 23.9621 27.6019 23.6998 27.5182L23.6998 27.5182L23.6982 27.5177C23.197 27.3727 22.7242 27.1024 22.329 26.7066C21.0816 25.4571 21.0816 23.4314 22.329 22.1819C23.5764 20.9325 25.5988 20.9325 26.8462 22.1819C27.2413 22.5777 27.5112 23.0513 27.656 23.5534ZM36.2017 25.3351L36.2017 25.3351L36.2012 25.3336C36.1176 25.0708 36.0524 24.7677 35.9804 24.4329L35.9799 24.4303C35.746 23.3426 35.4458 21.9459 34.2168 20.6811C34.2628 20.6571 34.3271 20.6216 34.4031 20.5741C34.5584 20.4773 34.7637 20.3304 34.9634 20.1305C35.163 19.9305 35.3096 19.7249 35.4063 19.5693C35.4536 19.4932 35.4891 19.4289 35.5131 19.3829C36.7758 20.6137 38.1702 20.9144 39.2561 21.1486L39.2588 21.1492C39.593 21.2213 39.8956 21.2866 40.1579 21.3703L40.1579 21.3703L40.1595 21.3708C40.6608 21.5158 41.1335 21.7861 41.5287 22.1819C42.7762 23.4314 42.7762 25.4571 41.5287 26.7066C40.2813 27.956 38.259 27.956 37.0116 26.7066C36.6164 26.3108 36.3465 25.8372 36.2017 25.3351ZM28.86 16.2019L28.86 16.2019L28.8604 16.2003C29.0052 15.6982 29.2751 15.2247 29.6703 14.8289C30.9177 13.5795 32.9401 13.5795 34.1875 14.8289C35.4349 16.0783 35.4349 18.1041 34.1875 19.3535C33.7923 19.7493 33.3195 20.0197 32.8182 20.1647L32.8182 20.1647L32.8167 20.1652C32.5543 20.2489 32.2517 20.3142 31.9175 20.3863L31.9149 20.3869C30.829 20.6211 29.4346 20.9218 28.1718 22.1526C28.1478 22.1065 28.1124 22.0422 28.0651 21.9661C27.9684 21.8106 27.8218 21.605 27.6221 21.405C27.4224 21.205 27.2172 21.0582 27.0619 20.9614C26.9858 20.9139 26.9216 20.8784 26.8756 20.8543C28.1045 19.5895 28.4048 18.1929 28.6386 17.1052L28.6392 17.1026C28.7111 16.7678 28.7764 16.4647 28.86 16.2019ZM34.9978 32.6866L34.9978 32.6866L34.9973 32.6882C34.8525 33.1903 34.5826 33.6638 34.1874 34.0596C32.94 35.309 30.9177 35.309 29.6703 34.0596C28.4228 32.8102 28.4228 30.7844 29.6703 29.535C30.0654 29.1392 30.5382 28.8688 31.0395 28.7238L31.0395 28.7238L31.0411 28.7233C31.3034 28.6396 31.606 28.5743 31.9402 28.5022L31.9428 28.5017C33.0288 28.2675 34.4232 27.9667 35.6859 26.7359C35.7099 26.782 35.7454 26.8463 35.7927 26.9224C35.8894 27.0779 36.0359 27.2835 36.2356 27.4835C36.4353 27.6835 36.6406 27.8303 36.7959 27.9271C36.8719 27.9746 36.9362 28.0101 36.9822 28.0342C35.7532 29.299 35.453 30.6956 35.2191 31.7833L35.2186 31.7859C35.1466 32.1207 35.0814 32.4238 34.9978 32.6866Z" stroke="black" stroke-opacity="0.1" stroke-width="0.120868" stroke-linejoin="round"/>
<defs>
<linearGradient id="paint0_linear_1_324" x1="30.8335" y1="35.8858" x2="30.3227" y2="11.5946" gradientUnits="userSpaceOnUse">
<stop stop-color="#FF004F"/>
<stop offset="1" stop-color="#FF0581"/>
</linearGradient>
<linearGradient id="paint1_linear_1_324" x1="30.8335" y1="35.8858" x2="30.3227" y2="11.5946" gradientUnits="userSpaceOnUse">
<stop stop-color="#FF004F"/>
<stop offset="1" stop-color="#FF0581"/>
</linearGradient>
<linearGradient id="paint2_linear_1_324" x1="30.8335" y1="35.8858" x2="30.3227" y2="11.5946" gradientUnits="userSpaceOnUse">
<stop stop-color="#FF004F"/>
<stop offset="1" stop-color="#FF0581"/>
</linearGradient>
<linearGradient id="paint3_linear_1_324" x1="30.8335" y1="35.8858" x2="30.3227" y2="11.5946" gradientUnits="userSpaceOnUse">
<stop stop-color="#FF004F"/>
<stop offset="1" stop-color="#FF0581"/>
</linearGradient>
</defs>
</svg>
