<svg width="133" height="49" viewBox="0 0 133 49" fill="none" xmlns="http://www.w3.org/2000/svg">
<g id="Group 48095863">
<g id="Clip path group">
<mask id="mask0_1_311" style="mask-type:luminance" maskUnits="userSpaceOnUse" x="30" y="15" width="69" height="21">
<g id="clip0_411_8657">
<path id="Vector" d="M98.3823 15.2776H30.0566V35.1384H98.3823V15.2776Z" fill="white"/>
</g>
</mask>
<g mask="url(#mask0_1_311)">
<g id="Group">
<path id="Vector_2" d="M55.0517 21.1627V26.703C55.0517 28.0367 55.0751 28.1511 56.3141 28.1511H58.3569V30.7258H55.6946C53.2615 30.7258 52.1143 29.9216 52.1143 27.002V21.1627H49.9115V18.5881H52.1143V15.2776H55.0517V18.5881H58.3569V21.1627H55.0517Z" fill="white"/>
<path id="Vector_3" d="M71.3942 24.6568C71.3942 28.1051 69.1221 30.9094 65.335 30.9094C61.5479 30.9094 59.2759 28.1051 59.2759 24.6568C59.2759 21.2086 61.5479 18.4043 65.335 18.4043C69.1221 18.4043 71.3942 21.2086 71.3942 24.6568ZM68.4568 24.6568C68.4568 22.6801 67.332 21.0708 65.336 21.0708C63.34 21.0708 62.2142 22.6801 62.2142 24.6568C62.2142 26.6335 63.3391 28.2429 65.336 28.2429C67.333 28.2429 68.4568 26.6335 68.4568 24.6568Z" fill="white"/>
<path id="Vector_4" d="M75.7991 19.0475C75.7991 19.5302 75.684 19.8976 75.4781 20.3119C75.3864 20.5415 75.2255 20.818 75.4547 20.9323C75.684 21.0476 75.8225 20.7486 75.8674 20.6568C76.602 19.3699 77.8185 18.4036 79.7003 18.4036C82.8445 18.4036 84.979 21.162 84.979 24.6561C84.979 28.1503 82.8445 30.9087 79.7003 30.9087C77.8643 30.9087 76.602 29.9658 75.8674 28.633C75.8215 28.5636 75.7298 28.334 75.523 28.4033C75.2703 28.4952 75.362 28.7248 75.4772 28.9554C75.684 29.3697 75.7981 29.7371 75.7981 30.1964V35.1386H72.8607V18.5882H75.7981V19.0485L75.7991 19.0475ZM82.0416 24.6561C82.0416 22.7253 81.0778 21.0701 79.0126 21.0701C77.0849 21.0701 75.7991 22.7253 75.7991 24.6561C75.7991 26.5869 77.0839 28.2421 79.0126 28.2421C81.0778 28.2421 82.0416 26.5869 82.0416 24.6561Z" fill="white"/>
<path id="Vector_5" d="M98.3812 24.6568C98.3812 28.1051 96.1091 30.9094 92.322 30.9094C88.5349 30.9094 86.2629 28.1051 86.2629 24.6568C86.2629 21.2086 88.5349 18.4043 92.322 18.4043C96.1091 18.4043 98.3812 21.2086 98.3812 24.6568ZM95.4438 24.6568C95.4438 22.6801 94.319 21.0708 92.322 21.0708C90.3251 21.0708 89.2012 22.6801 89.2012 24.6568C89.2012 26.6335 90.3261 28.2429 92.322 28.2429C94.318 28.2429 95.4438 26.6335 95.4438 24.6568Z" fill="white"/>
<path id="Vector_6" d="M35.9563 18.7532C35.9563 18.7532 35.9563 18.7552 35.9563 18.7562C35.9563 18.7591 35.9563 18.7611 35.9563 18.7631C35.9563 18.7611 35.9563 18.7581 35.9553 18.7532H35.9563Z" fill="white"/>
<path id="Vector_7" d="M45.0437 19.8104C44.9111 18.3516 44.0672 17.2621 42.7522 16.757L41.4254 16.1873C40.9503 15.9831 40.4235 15.8609 39.8587 15.8248C38.8743 15.7613 37.888 15.7554 36.9281 15.8052C35.8609 15.8619 34.8014 15.9889 33.7771 16.1844C31.824 16.5576 30.4856 17.9099 30.2846 19.7117C30.0095 22.1926 29.9831 24.5915 30.2065 27.045C30.3256 28.3563 31.1167 29.479 32.2698 29.9734L33.739 30.6046C34.0727 30.7463 34.4326 30.8362 34.8112 30.8616C35.4599 30.9036 36.1125 30.9251 36.7623 30.9251C37.2783 30.9251 37.7924 30.9114 38.3017 30.885C39.4538 30.8245 40.6294 30.6935 41.7961 30.4942C43.4399 30.2138 44.7735 28.751 44.9667 27.0147C45.2408 24.5445 45.2662 22.2552 45.0437 19.8104ZM32.3352 20.4074C32.5401 18.5695 34.0297 17.6442 35.3555 17.3911C35.5048 17.3628 35.655 17.3354 35.8052 17.311C35.8052 17.6217 35.8316 17.9305 35.8765 18.2343C35.8969 18.379 35.9252 18.5206 35.9457 18.6643C35.9496 18.6897 35.9526 18.7151 35.9565 18.7405C35.9565 18.7424 35.9565 18.7503 35.9594 18.7659C35.9594 18.7737 35.9613 18.7825 35.9613 18.7903C35.9672 18.848 35.9721 18.9046 35.9769 18.9623C35.9906 19.1763 35.9896 19.3922 35.9672 19.6072C35.9652 19.6267 35.9633 19.6473 35.9604 19.6668C35.9604 19.6668 35.9604 19.6717 35.9584 19.6785V19.6834C35.9565 19.6912 35.9555 19.7 35.9545 19.7049C35.9467 19.7567 35.9369 19.8075 35.9252 19.8593C35.9048 19.9472 35.8804 20.0352 35.8511 20.1212C35.8443 20.1397 35.8374 20.1583 35.8306 20.1759C35.8267 20.1876 35.8218 20.1983 35.817 20.2091C35.7984 20.2492 35.7799 20.2902 35.7594 20.3293C35.7389 20.3684 35.7165 20.4065 35.694 20.4436C35.6833 20.4592 35.6726 20.4749 35.6618 20.4934C35.6579 20.4993 35.6511 20.5081 35.6453 20.5159C35.5916 20.5843 35.535 20.6488 35.4726 20.7074C35.4618 20.7182 35.4501 20.7289 35.4472 20.7309C35.4472 20.7309 35.4199 20.7533 35.4131 20.7592C35.376 20.7875 35.338 20.8149 35.298 20.8413C35.2638 20.8638 35.2287 20.8853 35.1916 20.9048C35.1838 20.9087 35.1516 20.9243 35.1516 20.9253C35.136 20.9322 35.1204 20.939 35.1038 20.9458C35.015 20.9849 34.9233 21.0152 34.8307 21.0387C34.8063 21.0455 34.7819 21.0514 34.7575 21.0572C34.7507 21.0582 34.7253 21.0631 34.7195 21.065C34.6658 21.0738 34.6131 21.0817 34.5604 21.0875C34.5068 21.0934 34.4541 21.0973 34.4014 21.1002C34.339 21.1032 34.2775 21.1041 34.2151 21.1041C33.8795 21.1012 33.5478 21.0514 33.2152 21.0201C32.9049 20.9898 32.5937 20.9634 32.2776 20.9624C32.2952 20.7778 32.3147 20.5931 32.3352 20.4074ZM32.2347 21.4354C32.8591 21.4354 33.4698 21.5477 34.0922 21.5741C34.1936 21.578 34.2951 21.578 34.3975 21.5741C34.7487 21.5556 35.0999 21.4745 35.4209 21.2976C36.1681 20.8843 36.4403 19.9941 36.4315 19.1782C36.4286 18.8959 36.3964 18.6135 36.3486 18.3379C36.2862 17.9764 36.2511 17.6119 36.252 17.2406C36.6852 17.1761 37.1232 17.1243 37.5632 17.0843C37.5408 18.0839 37.732 19.0688 37.9593 20.0176C38.011 20.2316 38.0646 20.4446 38.1193 20.6566C38.1417 20.7455 38.1632 20.8354 38.1807 20.9263C38.1885 20.9664 38.1953 21.0064 38.2022 21.0475C38.2051 21.0709 38.209 21.0963 38.2119 21.1198C38.2139 21.1315 38.2149 21.1432 38.2168 21.154C38.2168 21.154 38.2178 21.1628 38.2188 21.1794C38.2363 21.3543 38.2412 21.5321 38.2324 21.7109C38.2275 21.795 38.2207 21.8809 38.21 21.963C38.209 21.963 38.1973 22.0343 38.1953 22.049C38.1875 22.0949 38.1778 22.1399 38.1671 22.1858C38.1495 22.2689 38.1271 22.3509 38.1017 22.432C38.088 22.4721 38.0744 22.5112 38.0597 22.5512C38.0549 22.5649 38.05 22.5786 38.0451 22.5923C38.0441 22.5923 38.0217 22.645 38.0197 22.6509C37.9876 22.7232 37.9515 22.7936 37.9134 22.862C37.8929 22.8971 37.8724 22.9323 37.851 22.9675C37.8402 22.9821 37.8305 22.9978 37.8198 23.0134C37.8149 23.0212 37.809 23.03 37.7983 23.0447C37.7515 23.1101 37.6998 23.1717 37.6451 23.2313C37.6198 23.2577 37.5944 23.2841 37.5681 23.3095C37.5525 23.3251 37.5359 23.3398 37.49 23.3798C37.4295 23.4287 37.3661 23.4746 37.3008 23.5166C37.2637 23.5401 37.2247 23.5626 37.1857 23.584C37.1749 23.5899 37.1642 23.5958 37.1544 23.6007C37.1535 23.6007 37.1018 23.6251 37.0959 23.628C36.8608 23.7306 36.6237 23.7824 36.3818 23.7951C36.2657 23.801 36.1477 23.798 36.0277 23.7883C35.6092 23.7511 35.2053 23.6212 34.8121 23.4863C34.3614 23.332 33.9156 23.159 33.4444 23.0681C33.1869 23.0183 32.9313 22.9997 32.6747 23.0134C32.4952 23.0222 32.3167 23.0476 32.1362 23.0886C32.1557 22.5395 32.1889 21.9894 32.2347 21.4363V21.4354ZM32.1216 23.5684C32.3059 23.5205 32.4893 23.4922 32.6718 23.4824C32.8796 23.4717 33.0864 23.4854 33.2932 23.5235C33.7263 23.6046 34.14 23.756 34.5526 23.9006C35.137 24.1048 35.7604 24.2964 36.3906 24.2641C36.612 24.2524 36.8354 24.2123 37.0569 24.1351C37.7554 23.8948 38.2714 23.3026 38.5153 22.5786C38.6334 22.2298 38.6851 21.8555 38.6831 21.494C38.6812 21.0846 38.5983 20.7006 38.5007 20.3127C38.2334 19.2564 37.9837 18.1659 38.009 17.0472C38.1485 17.0374 38.288 17.0296 38.4275 17.0217C38.7046 17.0071 38.9846 16.9973 39.2655 16.9924C39.1631 17.5895 39.1758 18.1855 39.2831 18.7698C39.3855 19.3307 39.566 19.8652 39.7562 20.3928C40.1269 21.4236 40.5845 22.5024 40.5133 23.6573C40.4508 24.6784 39.8655 25.6975 38.9046 26.0796C38.6236 26.191 38.3407 26.2457 38.0578 26.2604C37.2422 26.3034 36.4276 26.018 35.657 25.8275C35.1136 25.6927 34.5497 25.5891 33.981 25.6184C33.9614 25.6194 33.9429 25.6204 33.9244 25.6223C33.3147 25.6643 32.7147 25.8773 32.2035 26.2682C32.1898 26.2789 32.1762 26.2897 32.1625 26.3004C32.1128 25.3878 32.0991 24.4801 32.1216 23.5684ZM32.8249 29.1448C32.5128 28.7178 32.3108 28.196 32.2581 27.6225C32.2347 27.3674 32.2142 27.1134 32.1967 26.8593C32.6181 26.4626 33.1361 26.1988 33.6834 26.1197C33.778 26.106 33.8736 26.0972 33.9683 26.0923C34.4502 26.0669 34.9272 26.146 35.3916 26.2555C36.2686 26.4607 37.1554 26.7763 38.0685 26.7284C38.3036 26.7157 38.5417 26.6795 38.7807 26.6102C39.8596 26.3004 40.6654 25.3057 40.8918 24.1645C41.123 22.99 40.7659 21.8458 40.3864 20.7924C39.9982 19.7166 39.5465 18.6135 39.6528 17.4048C39.6655 17.2651 39.686 17.1263 39.7133 16.9885C40.0313 16.9885 40.3503 16.9954 40.6693 17.009C40.5279 18.4366 41.1522 19.701 41.7532 20.8911C42.0595 21.4979 42.3775 22.1057 42.5931 22.7584C42.799 23.3818 42.8839 23.9993 42.8282 24.6735C42.7209 25.9457 42.0527 27.2062 40.9581 27.8833C40.4235 28.2146 39.8548 28.3465 39.2763 28.3768C38.4266 28.4217 37.5554 28.2468 36.7359 28.1599C36.3106 28.1149 35.8843 28.0905 35.456 28.113C35.2287 28.1247 35.0004 28.1501 34.7731 28.1921C34.139 28.3084 33.5049 28.5302 32.9927 28.9826C32.9342 29.0334 32.8786 29.0881 32.8249 29.1448ZM44.3852 26.9492C44.2204 28.4315 43.0897 29.6793 41.6976 29.9167C40.5533 30.1112 39.4002 30.2401 38.2714 30.2998C37.1418 30.3584 35.9896 30.3506 34.8492 30.2763C34.178 30.2323 33.5742 29.9412 33.1176 29.4868C33.4883 29.0774 33.9858 28.8566 34.5107 28.7227C34.818 28.6435 35.1389 28.6005 35.4618 28.5839C35.7633 28.5673 36.0677 28.5751 36.3633 28.5986C37.3222 28.6748 38.3144 28.9005 39.2928 28.8487C39.7826 28.8233 40.2694 28.7276 40.7454 28.5097C42.0137 27.9303 42.916 26.6561 43.1912 25.251C43.3229 24.5729 43.3229 23.8811 43.1892 23.2206C43.0497 22.5317 42.7619 21.8897 42.4614 21.2741C41.88 20.0811 41.0947 18.8431 41.0888 17.437C41.0888 17.3061 41.0937 17.1595 41.1083 17.0305C41.1688 17.0325 41.2293 17.0364 41.2898 17.0403C43.1258 17.1595 44.3111 18.2148 44.4613 19.8632C44.6789 22.2679 44.6545 24.5191 44.3852 26.9492Z" fill="#0067F6"/>
</g>
</g>
</g>
</g>
</svg>
