<svg width="133" height="49" viewBox="0 0 133 49" fill="none" xmlns="http://www.w3.org/2000/svg">
<path d="M53.9166 21.6089C53.3272 21.6089 52.8468 21.7351 52.4754 21.9876C52.1365 22.2067 51.8492 22.4969 51.6331 22.8381H51.6048C51.3887 22.4969 51.1013 22.2067 50.7624 21.9876C50.391 21.7351 49.9106 21.6089 49.3212 21.6089C48.3407 21.6089 47.5961 21.8829 47.0874 22.431C46.5788 22.9792 46.3241 23.7429 46.3231 24.7223V28.4827H48.2932V24.8652C48.2932 24.3791 48.391 24.0003 48.5865 23.729C48.6946 23.6024 48.8286 23.5007 48.9796 23.431C49.1307 23.3613 49.2949 23.3252 49.4612 23.3252C49.6274 23.3252 49.7917 23.3613 49.9426 23.431C50.0938 23.5007 50.2278 23.6024 50.3358 23.729C50.5306 23.9985 50.6283 24.3773 50.6292 24.8652V28.4827H52.5992V24.8652C52.5992 24.3791 52.6965 24.0003 52.8912 23.729C52.9994 23.6026 53.1336 23.5011 53.2846 23.4316C53.4356 23.362 53.5997 23.326 53.7659 23.326C53.9321 23.326 54.0963 23.362 54.2472 23.4316C54.3982 23.5011 54.5324 23.6026 54.6406 23.729C54.8361 23.9985 54.9335 24.3773 54.9326 24.8652V28.4827H56.9026V24.7223C56.9026 23.7411 56.6483 22.9774 56.1396 22.431C55.631 21.8847 54.8899 21.6107 53.9166 21.6089Z" fill="white"/>
<path d="M63.1876 22.0631C62.6468 21.7539 62.0326 21.5969 61.41 21.6089C60.7851 21.5983 60.1688 21.7561 59.6257 22.0658C59.107 22.3653 58.6821 22.8035 58.3984 23.3314C58.1087 23.8861 57.9568 24.5026 57.9556 25.1286C57.9545 25.7545 58.104 26.3716 58.3917 26.9273C58.6755 27.4553 59.1035 27.8914 59.6257 28.1848C60.1887 28.4973 60.8242 28.6548 61.4678 28.6417C62.1665 28.6524 62.8539 28.4656 63.4513 28.1026C64.0472 27.7331 64.4728 27.1425 64.6355 26.4597H62.8525C62.7244 26.6638 62.5364 26.8234 62.3143 26.9166C62.0291 27.0226 61.7259 27.0712 61.4221 27.0594C61.043 27.0722 60.6708 26.9563 60.3658 26.7306C60.0657 26.4886 59.8589 26.1499 59.7804 25.7723H64.8185C64.8279 25.5917 64.8333 25.3774 64.8333 25.1294C64.8413 24.5041 64.6914 23.887 64.3973 23.3354C64.1209 22.8063 63.7018 22.3655 63.1876 22.0631ZM59.7683 24.4501C59.8506 24.0898 60.0552 23.7693 60.3469 23.543C60.6532 23.3141 61.028 23.1958 61.41 23.2074C61.7979 23.1985 62.1774 23.3215 62.4865 23.5565C62.779 23.7724 62.9783 24.092 63.0436 24.4501H59.7683Z" fill="white"/>
<path d="M70.9571 22.7059C70.7693 22.3586 70.4808 22.0765 70.1295 21.8972C69.7325 21.6974 69.2926 21.5984 68.8484 21.6088C68.3332 21.6102 67.8276 21.7498 67.3844 22.0131C66.904 22.3001 66.5133 22.7161 66.2567 23.214C65.9535 23.8057 65.804 24.4644 65.8221 25.1292C65.8038 25.7941 65.9533 26.4529 66.2567 27.0444C66.5125 27.5429 66.9033 27.9591 67.3844 28.2453C67.8276 28.5087 68.3332 28.6483 68.8484 28.6497C69.312 28.6637 69.7713 28.5579 70.182 28.3424C70.5392 28.1476 70.8264 27.8454 71.0028 27.4784L71.1172 28.4933H72.9298V18.7325H70.9571V22.7059ZM70.5036 26.4608C70.3604 26.6071 70.1892 26.7231 70.0004 26.8018C69.8115 26.8806 69.6087 26.9204 69.4042 26.9191C69.1848 26.9254 68.9666 26.8853 68.7638 26.8014C68.5609 26.7176 68.3778 26.592 68.2267 26.4325C67.9172 26.1091 67.7625 25.6706 67.7625 25.1171C67.7625 24.5636 67.9172 24.1251 68.2267 23.8016C68.378 23.6424 68.561 23.5169 68.7638 23.4333C68.9667 23.3497 69.185 23.3099 69.4042 23.3164C69.6086 23.3152 69.8112 23.3549 70 23.4334C70.189 23.5119 70.3601 23.6275 70.5036 23.7733C70.8176 24.0779 70.9746 24.5272 70.9746 25.1211C70.9746 25.7151 70.8176 26.1616 70.5036 26.4608Z" fill="white"/>
<path d="M76.5135 21.7626H74.5435V28.4814H76.5135V21.7626Z" fill="white"/>
<path d="M75.5318 18.3741C75.3718 18.3725 75.2131 18.4026 75.0648 18.4627C74.9165 18.5229 74.7816 18.6119 74.6679 18.7245C74.5511 18.8329 74.4583 18.9645 74.3955 19.111C74.3327 19.2575 74.3012 19.4156 74.3032 19.575C74.3016 19.7314 74.3333 19.8863 74.3962 20.0295C74.459 20.1726 74.5517 20.3007 74.6679 20.4052C74.9016 20.6252 75.2103 20.7476 75.5311 20.7476C75.8518 20.7476 76.1605 20.6252 76.3943 20.4052C76.5107 20.3009 76.6036 20.1729 76.6664 20.0297C76.7294 19.8865 76.7609 19.7314 76.759 19.575C76.7613 19.4155 76.7299 19.2574 76.6671 19.1108C76.6043 18.9643 76.5114 18.8326 76.3943 18.7245C76.2808 18.612 76.1461 18.5231 75.998 18.463C75.8499 18.4028 75.6915 18.3726 75.5318 18.3741Z" fill="white"/>
<path d="M81.237 23.3218C81.9233 23.3218 82.3898 23.6314 82.6365 24.2505H84.5352C84.4259 23.4912 84.03 22.8028 83.4291 22.3272C82.8253 21.8482 82.0807 21.6088 81.1953 21.6088C80.5521 21.5982 79.9172 21.7557 79.3531 22.0657C78.8194 22.362 78.3775 22.7999 78.0761 23.3313C77.7717 23.88 77.6118 24.4974 77.6118 25.1252C77.6118 25.753 77.7717 26.3704 78.0761 26.9191C78.3775 27.4506 78.8194 27.8885 79.3531 28.1847C79.9172 28.4947 80.5521 28.6521 81.1953 28.6416C82.079 28.6416 82.8235 28.4013 83.4291 27.9205C84.03 27.4449 84.4259 26.7566 84.5352 25.9972H82.6365C82.3889 26.6172 81.9225 26.9272 81.237 26.9272C81.0107 26.9343 80.7853 26.8927 80.5763 26.805C80.3674 26.7174 80.1797 26.5857 80.0259 26.4191C79.7218 26.0568 79.5551 25.5985 79.5551 25.1252C79.5551 24.6518 79.7218 24.1937 80.0259 23.8313C80.1795 23.6643 80.3672 23.5324 80.5761 23.4445C80.7851 23.3566 81.0105 23.3148 81.237 23.3218Z" fill="white"/>
<path d="M90.6437 22.8071C90.4675 22.4314 90.1775 22.1211 89.8148 21.9202C89.3977 21.7008 88.9307 21.5935 88.4598 21.6089C87.9364 21.6106 87.4227 21.7501 86.9701 22.0132C86.4835 22.2967 86.0876 22.7133 85.829 23.2141C85.5246 23.8054 85.3747 24.4643 85.393 25.1293C85.3744 25.7943 85.5245 26.4533 85.829 27.0446C86.0866 27.5462 86.4826 27.9631 86.9701 28.2455C87.4235 28.5091 87.9382 28.6484 88.4624 28.6498C88.9298 28.6639 89.393 28.5581 89.8081 28.3425C90.1681 28.1492 90.4578 27.8469 90.6357 27.4786L90.7379 28.4827H92.4873V21.7625H90.8146L90.6437 22.8071ZM90.1297 26.461C89.9841 26.6081 89.8104 26.7246 89.619 26.8033C89.4277 26.882 89.2223 26.9215 89.0155 26.9192C88.7909 26.927 88.5673 26.8877 88.3587 26.804C88.1501 26.7201 87.9613 26.5937 87.8044 26.4327C87.4895 26.1092 87.3325 25.6707 87.3334 25.1172C87.3127 24.6384 87.482 24.1708 87.8044 23.8166C87.9592 23.6518 88.1473 23.522 88.3561 23.4358C88.565 23.3495 88.7897 23.3089 89.0155 23.3165C89.2801 23.3186 89.5392 23.3927 89.765 23.5308C90.0161 23.6815 90.2231 23.8958 90.3652 24.1522C90.5276 24.4473 90.6089 24.7803 90.6007 25.1172C90.6024 25.7129 90.4455 26.1608 90.1297 26.461Z" fill="white"/>
<path d="M96.1102 18.7325H94.1401V28.4825H96.1102V18.7325Z" fill="#1172D9"/>
<path d="M98.7788 18.3741C98.6188 18.3725 98.4602 18.4026 98.3119 18.4627C98.1636 18.5229 98.0286 18.6119 97.9149 18.7245C97.7981 18.8329 97.7054 18.9645 97.6426 19.111C97.5797 19.2575 97.5484 19.4156 97.5503 19.575C97.5486 19.7314 97.5804 19.8863 97.6432 20.0295C97.7062 20.1726 97.7988 20.3007 97.9149 20.4052C98.1487 20.6252 98.4574 20.7476 98.7782 20.7476C99.099 20.7476 99.4077 20.6252 99.6414 20.4052C99.7578 20.3009 99.8506 20.1729 99.9135 20.0297C99.9765 19.8865 100.008 19.7314 100.006 19.575C100.008 19.4155 99.977 19.2574 99.9143 19.1108C99.8514 18.9643 99.7585 18.8326 99.6414 18.7245C99.5278 18.612 99.3931 18.5231 99.2451 18.463C99.0971 18.4028 98.9386 18.3726 98.7788 18.3741Z" fill="#1172D9"/>
<path d="M99.7645 21.7626H97.7944V28.4814H99.7645V21.7626Z" fill="#1172D9"/>
<path d="M108.122 23.2072C107.864 22.7118 107.474 22.2983 106.994 22.0131C106.552 21.75 106.046 21.6103 105.532 21.6088C105.086 21.597 104.645 21.6951 104.246 21.8945C103.895 22.0738 103.607 22.3559 103.419 22.7032V18.7325H101.449V28.4825H103.261L103.376 27.4677C103.553 27.8344 103.84 28.1366 104.197 28.3316C104.608 28.5472 105.068 28.653 105.532 28.6389C106.046 28.6373 106.552 28.4976 106.994 28.2346C107.475 27.9483 107.866 27.5321 108.122 27.0337C108.426 26.4422 108.576 25.7833 108.557 25.1184C108.575 24.4549 108.425 23.7975 108.122 23.2072ZM106.152 26.442C106.001 26.6014 105.818 26.727 105.615 26.8109C105.412 26.8947 105.194 26.9349 104.974 26.9285C104.77 26.9297 104.567 26.8897 104.378 26.811C104.19 26.7323 104.018 26.6165 103.875 26.4703C103.561 26.1657 103.404 25.7165 103.404 25.1225C103.404 24.5286 103.561 24.0793 103.875 23.7747C104.019 23.6289 104.19 23.5134 104.379 23.435C104.568 23.3565 104.77 23.3167 104.974 23.3178C105.194 23.3112 105.412 23.3511 105.615 23.4347C105.818 23.5183 106.001 23.6438 106.152 23.803C106.461 24.1274 106.616 24.5658 106.616 25.1184C106.616 25.671 106.461 26.1108 106.152 26.4379V26.442Z" fill="#1172D9"/>
<path d="M36.0171 22.8239C36.2643 22.2223 35.9778 21.5338 35.3771 21.2862C34.7765 21.0386 34.0892 21.3256 33.842 21.9272C33.5948 22.5289 33.8813 23.2173 34.482 23.4649C35.0825 23.7125 35.7699 23.4255 36.0171 22.8239Z" fill="white"/>
<path d="M37.7838 16.3524C36.6481 16.3524 35.8057 16.6072 34.9109 16.9886C34.0147 16.6085 33.1736 16.3524 32.0379 16.3524C28.7034 16.3524 26.1305 18.7299 26.1305 22.0833C26.1305 24.8934 27.6807 26.5742 29.578 28.3613L34.884 33.3603H34.9378L40.2423 28.3613C42.141 26.5742 43.6912 24.8934 43.6912 22.0833C43.6912 18.7299 41.1251 16.3524 37.7838 16.3524ZM34.9311 19.6721C36.4274 19.6721 37.5631 20.9309 37.5631 22.3757C37.5631 23.8206 36.4947 25.0794 34.9311 25.0794C33.3674 25.0794 32.2976 23.8233 32.2976 22.3771C32.2976 20.9309 33.4333 19.6734 34.9311 19.6734V19.6721ZM38.7958 27.2696L34.9136 30.9087L31.0287 27.2696C29.4448 25.787 27.9942 24.4392 27.9942 22.0765C27.9942 19.7543 29.679 18.1342 31.9975 18.1342C32.417 18.1238 32.835 18.1867 33.2328 18.3202C32.4158 18.6353 31.714 19.1925 31.2212 19.9173C30.7283 20.6421 30.4677 21.5002 30.4742 22.3771C30.4742 24.8934 32.4847 26.7817 34.9311 26.7817C37.3774 26.7817 39.3878 24.8948 39.3878 22.3771C39.3948 21.4955 39.1323 20.6328 38.6356 19.905C38.1389 19.1771 37.4317 18.6189 36.6091 18.3054C37 18.1784 37.4093 18.1183 37.8202 18.1275C40.1387 18.1275 41.8221 19.7448 41.8221 22.0698C41.8262 24.4392 40.3769 25.7776 38.7958 27.2696Z" fill="white"/>
</svg>
