<svg width="133" height="50" viewBox="0 0 133 50" fill="none" xmlns="http://www.w3.org/2000/svg">
<path d="M54.1073 25.2817L51.7611 16.5719H54.1703L55.7594 22.9793H55.8956L57.9063 16.5719H60.1291L62.1038 22.9793H62.253L63.7931 16.5719H66.1149L63.7803 25.2804H60.7385L59.0004 19.6816H58.9258L57.1748 25.2804H54.1086L54.1073 25.2817Z" fill="white"/>
<path d="M65.7928 25.2817L68.9966 16.5719H72.5847L75.7756 25.2804H73.4037L72.7081 23.3515H68.8346L68.1391 25.2804H65.7928V25.2817ZM70.5483 18.5884L69.4928 21.5243H72.0628L71.0073 18.5884H70.547H70.5483Z" fill="white"/>
<path d="M78.2313 25.2817V18.5871H75.1394L75.2268 16.5719H83.5203L83.5949 18.5871H80.503V25.2804H78.2313V25.2817Z" fill="white"/>
<path d="M83.8199 20.9643C83.8199 18.4134 85.5953 16.3608 88.7862 16.3608C90.2261 16.3608 91.3433 16.8463 92.0388 17.3433V19.5452H92.0259C91.0823 18.9104 90.1515 18.3632 88.8595 18.3632C88.002 18.3632 87.3322 18.6117 86.8475 19.0971C86.3628 19.5826 86.1276 20.1916 86.1276 20.9514C86.1276 21.7111 86.3628 22.2957 86.8346 22.7799C87.3065 23.2524 87.9776 23.4894 88.8466 23.4894C90.1374 23.4894 91.0939 23.0284 92.0247 22.333H92.0375V24.5594C91.7277 24.7706 91.2674 24.9831 90.6838 25.1942C90.1001 25.3938 89.4174 25.493 88.6358 25.493C85.3459 25.493 83.8186 23.4778 83.8186 20.9643H83.8199Z" fill="white"/>
<path d="M93.3677 25.2817V16.5719H95.6393V19.8065H99.7366V16.5719H102.021V25.2817H99.7366V21.8101H95.6393V25.2817H93.3677Z" fill="white"/>
<path d="M51.9717 30.849C51.9717 29.3952 52.9835 28.2247 54.8026 28.2247C55.6228 28.2247 56.2605 28.5016 56.6564 28.7849V30.0403H56.6487C56.1113 29.6785 55.5804 29.3669 54.845 29.3669C54.3565 29.3669 53.9747 29.5085 53.6983 29.7854C53.4218 30.0622 53.2881 30.4099 53.2881 30.8426C53.2881 31.2752 53.4231 31.6087 53.6918 31.8856C53.9605 32.1547 54.3423 32.2899 54.8386 32.2899C55.574 32.2899 56.1191 32.0272 56.65 31.6306H56.6577V32.9002C56.4803 33.0213 56.2193 33.141 55.8864 33.2621C55.5534 33.3754 55.1651 33.4321 54.719 33.4321C52.8433 33.4321 51.973 32.2835 51.973 30.8516L51.9717 30.849Z" fill="white"/>
<path d="M57.4136 33.3098V28.3458H61.6458L61.6947 29.4455H58.7018V30.24H61.0788V31.283H58.7018V32.2114H61.7872L61.7448 33.3111H57.4136V33.3098Z" fill="white"/>
<path d="M62.48 33.3098V28.3458H65.2466C66.5412 28.3458 67.1712 28.9626 67.1712 30.0906C67.1712 30.8915 66.8176 31.4452 66.1594 31.6796L67.3769 33.3111H65.8843L64.9008 31.9281H63.7759V33.3111H62.4813L62.48 33.3098ZM63.7746 30.8632H65.1335C65.6709 30.8632 65.8688 30.5516 65.8688 30.1473C65.8688 29.7429 65.6709 29.4455 65.1335 29.4455H63.7746V30.8632Z" fill="white"/>
<path d="M69.2098 33.3098V29.4944H67.4473L67.4974 28.3458H72.2246L72.267 29.4944H70.5044V33.3098H69.2098Z" fill="white"/>
<path d="M72.8414 33.3098V28.3458H74.136V33.3098H72.8414Z" fill="white"/>
<path d="M75.1135 33.3098V28.3458H79.2956L79.338 29.4519H76.4081V30.4589H78.8636V31.5289H76.4081V33.3085H75.1135V33.3098Z" fill="white"/>
<path d="M79.9814 33.3098V28.3458H81.2761V33.3098H79.9814Z" fill="white"/>
<path d="M81.9755 30.849C81.9755 29.3952 82.9872 28.2247 84.8064 28.2247C85.6266 28.2247 86.2643 28.5016 86.6602 28.7849V30.0403H86.6525C86.1151 29.6785 85.5842 29.3669 84.8475 29.3669C84.359 29.3669 83.9772 29.5085 83.7008 29.7854C83.4243 30.0622 83.2906 30.4099 83.2906 30.8426C83.2906 31.2752 83.4256 31.6087 83.6943 31.8856C83.963 32.1547 84.3448 32.2899 84.8411 32.2899C85.5765 32.2899 86.1216 32.0272 86.6525 31.6306H86.6602V32.9002C86.4828 33.0213 86.2218 33.141 85.8889 33.2621C85.5559 33.3754 85.1676 33.4321 84.7215 33.4321C82.8458 33.4321 81.9755 32.2835 81.9755 30.8516V30.849Z" fill="white"/>
<path d="M87.0579 33.3098L88.8834 28.3458H90.9288L92.7467 33.3098H91.3955L90.9995 32.2101H88.7909L88.3949 33.3098H87.0579ZM89.7679 29.4944L89.1663 31.1684H90.6306L90.0289 29.4944H89.7666H89.7679Z" fill="white"/>
<path d="M94.022 33.3098V29.4944H92.2594L92.3083 28.3458H97.0354L97.0779 29.4944H95.3153V33.3098H94.0207H94.022Z" fill="white"/>
<path d="M97.6357 33.3098V28.3458H101.868L101.918 29.4455H98.9252V30.24H101.302V31.283H98.9252V32.2114H102.011L101.968 33.3111H97.637L97.6357 33.3098Z" fill="white"/>
<path d="M39.9907 20.3574C39.7645 20.3574 39.5395 20.3742 39.3184 20.4064V29.5707C39.5395 29.6029 39.7645 29.6196 39.9907 29.6196C41.2262 29.6196 42.3871 29.138 43.26 28.2637C44.133 27.3894 44.6138 26.2266 44.6138 24.9892C44.6138 23.7517 44.133 22.5889 43.26 21.7146C42.3871 20.8403 41.2262 20.3587 39.9907 20.3587V20.3574Z" fill="white"/>
<path d="M39.9337 15.7168C33.5776 15.7168 31.3124 18.4917 31.3124 24.988C31.3124 31.4843 33.5776 34.2592 39.9337 34.2592C46.2897 34.2592 48.6681 31.4843 48.6681 24.988C48.6681 18.4917 46.291 15.7168 39.9337 15.7168ZM37.6851 29.2425H36.6567C36.5885 29.2425 36.523 29.218 36.4702 29.1742C35.2425 28.1402 34.5264 26.6208 34.5264 24.988C34.5264 23.3552 35.2271 21.8667 36.433 20.834C36.4857 20.7889 36.5512 20.7645 36.6207 20.7645H37.6851V29.2425ZM43.8535 28.8574C42.8212 29.8914 41.4494 30.4606 39.9902 30.4606C39.512 30.4606 39.0402 30.3988 38.5838 30.2777C38.5208 30.261 38.4771 30.2043 38.4771 30.14V19.8373C38.4771 19.7729 38.5208 19.7163 38.5838 19.6996C39.0389 19.5785 39.512 19.5167 39.9902 19.5167C41.9328 19.5167 43.7198 20.5249 44.7573 22.2929C44.9823 22.6766 45.1533 23.09 45.2651 23.5201C45.7806 25.5056 45.2278 27.4835 43.8548 28.8587L43.8535 28.8574Z" fill="white"/>
</svg>
