<svg width="134" height="49" viewBox="0 0 134 49" fill="none" xmlns="http://www.w3.org/2000/svg">
<g clip-path="url(#clip0_1_312)">
<path d="M82.9436 21.2619C82.1762 20.6414 81.1878 20.3297 79.9754 20.3297C78.3898 20.3297 76.9714 20.8321 75.7202 21.84L76.6877 23.211C77.718 22.5058 78.7123 22.1517 79.6648 22.1517C81.1848 22.1517 81.9463 22.8448 81.9463 24.231V24.6245H79.1423C77.8643 24.6245 76.852 24.8787 76.1054 25.3902C75.3589 25.8987 74.9827 26.6674 74.9827 27.6934C74.9827 28.7195 75.335 29.5397 76.0368 30.1541C76.7385 30.7685 77.6254 31.0742 78.6974 31.0742C80.1277 31.0742 81.2684 30.5566 82.1194 29.5246V30.9168H84.0933V24.1917C84.0933 22.86 83.7081 21.8824 82.9436 21.2619ZM81.9253 27.0337C81.9253 27.6995 81.6685 28.2292 81.1519 28.6226C80.6354 29.0161 80.0321 29.2098 79.3424 29.2098C78.6526 29.2098 78.1151 29.0766 77.7269 28.8073C77.3387 28.5409 77.1476 28.1505 77.1476 27.642C77.1476 26.6493 77.9269 26.1529 79.4887 26.1529H81.9253V27.0337Z" fill="white"/>
<path d="M95.8139 20.4872H93.2428L90.9586 23.9194L88.7549 20.4872H86.1032L89.5671 25.6052L85.9121 30.9169H88.4443L90.8422 27.4453L93.3 30.9169H95.9696L92.2157 25.584L95.8139 20.4872Z" fill="white"/>
<path d="M99.0058 16.3497C98.6328 16.3497 98.3097 16.4859 98.0385 16.7613C97.7666 17.0368 97.632 17.3636 97.632 17.742C97.632 18.1203 97.7666 18.4472 98.0385 18.7226C98.3097 18.998 98.6328 19.1342 99.0058 19.1342C99.3789 19.1342 99.7013 18.998 99.9732 18.7226C100.245 18.4472 100.379 18.1203 100.379 17.742C100.379 17.3636 100.245 17.0368 99.9732 16.7613C99.7013 16.4859 99.3789 16.3497 99.0058 16.3497Z" fill="white"/>
<path d="M100.069 20.4872H97.9041V30.9169H100.069V20.4872Z" fill="white"/>
<path d="M68.3506 20.487H65.5645L61.387 24.9179V17.5209L59.2191 18.4924V30.9167H61.387V27.9566L62.9517 26.3495L66.0095 30.9167H68.6403L64.4418 24.6243L68.3506 20.487Z" fill="white"/>
<path d="M70.4584 30.9167H72.6233V17.2698L70.4584 18.2443V30.9167Z" fill="white"/>
<path d="M107.339 29.1702C106.877 29.1702 106.515 29.0219 106.256 28.7283C105.999 28.4347 105.867 28.0382 105.867 27.5419V22.2513H108.576V20.4868H105.867V16.6097L103.702 17.5843V20.4868H102.406V22.2513H103.702V27.4843C103.702 28.583 104.028 29.4547 104.679 30.1024C105.33 30.7501 106.115 31.0739 107.038 31.0739C107.582 31.0739 108.095 30.9498 108.582 30.7107V28.8463C108.584 28.8463 108.173 29.1702 107.339 29.1702Z" fill="white"/>
<path d="M37.8602 23.9658C37.9159 23.9194 37.8821 23.8286 37.8105 23.8286H35.273C35.1796 23.8286 35.1041 23.9053 35.1041 24.0001V25.3558C35.1041 25.4506 35.1796 25.5273 35.273 25.5273H36.7188C36.7605 25.5273 36.7983 25.5011 36.8122 25.4607C37.0349 24.8757 37.3968 24.3633 37.8602 23.9658Z" fill="#FF7E30"/>
<path d="M48.7688 17.8165C48.5362 19.2973 47.3391 20.7963 46.0883 21.5306C45.3724 21.9099 44.557 22.2044 43.7577 22.4223V22.4244C43.7278 22.4324 43.696 22.4384 43.6662 22.4465C42.3159 22.8137 40.7827 22.9953 40.033 23.189C40.0092 23.195 39.9912 23.2011 39.9753 23.2071C38.4123 23.6328 37.2609 25.0793 37.2609 26.7981C37.2609 26.8183 37.2629 26.8405 37.2629 26.8607C37.2629 26.903 37.2649 26.9454 37.2669 26.9858C37.2669 26.9877 37.2669 26.9877 37.2669 26.9898C37.2748 27.1713 37.2967 27.3549 37.3345 27.5385C37.3365 27.5466 37.3385 27.5547 37.3385 27.5607C37.3445 27.591 37.3524 27.6233 37.3604 27.6535C37.5532 28.4847 38.0206 29.207 38.6609 29.7194C38.6768 29.7335 38.6927 29.7456 38.7086 29.7577C38.7206 29.7678 38.7325 29.7759 38.7444 29.7859C39.4027 30.3065 40.1463 30.5203 40.8682 30.5183C40.8901 30.5183 40.91 30.5203 40.9319 30.5203C42.0515 30.5203 43.0517 30.0099 43.7238 29.2089C43.7278 29.2049 43.7318 29.1989 43.7358 29.1949C44.0301 28.8378 44.2587 28.4242 44.4059 27.9743C44.5093 27.6818 44.5709 27.4195 44.6067 27.2138C44.1732 27.012 43.6781 26.8506 43.1193 26.7557C43.1133 26.8264 43.1054 26.895 43.0955 26.9595C43.0955 26.9616 43.0934 26.9635 43.0934 26.9676C43.0656 27.1431 43.0259 27.3004 42.9761 27.4377C42.9463 27.5203 42.9125 27.593 42.8807 27.6555C42.8787 27.6596 42.8767 27.6636 42.8747 27.6657C42.8608 27.6899 42.8489 27.712 42.8349 27.7342C42.827 27.7463 42.8191 27.7584 42.8131 27.7705C42.8031 27.7846 42.7951 27.7988 42.7852 27.8109C42.5605 28.1316 42.2523 28.2588 41.9301 28.2305C41.9063 28.2285 41.8824 28.2285 41.8565 28.2244C41.7909 28.2144 41.7312 28.1962 41.6736 28.176C41.2898 28.0429 41.071 27.708 41.0611 27.3388C41.0611 27.3267 41.0631 27.3166 41.0631 27.3045C41.0651 27.1229 41.1148 26.9374 41.2202 26.7638C41.2421 26.7275 41.2679 26.6952 41.2977 26.665C41.6617 26.201 42.2781 26.0981 42.8429 26.1445V26.1465C44.1991 26.2656 45.2909 26.7094 46.0942 27.2622C48.4149 28.8519 48.7748 30.9722 48.7748 30.9722H49.4788V30.7079V30.258V18.5448V18.1111V17.8165H48.7688Z" fill="#FF9330"/>
<path d="M34.1393 23.2052C32.9481 23.1507 32.3615 22.3175 32.3615 22.3175C31.6615 21.448 30.5817 20.9053 29.3806 20.9497C27.5014 21.0163 25.9463 22.5576 25.8429 24.4641C25.7236 26.6207 27.4139 28.4081 29.5158 28.4081C30.6633 28.4081 31.6894 27.8735 32.3635 27.0383C32.3635 27.0383 32.9481 26.2051 34.1413 26.1506C34.1652 26.1486 34.1871 26.1486 34.2089 26.1486C34.3879 26.1425 34.5291 25.9933 34.5291 25.8117V24.6759V23.5421C34.5291 23.3605 34.3879 23.2112 34.2089 23.2052C34.185 23.2072 34.1632 23.2052 34.1393 23.2052Z" fill="white"/>
</g>
<defs>
<clipPath id="clip0_1_312">
<rect width="82.7483" height="15.7868" fill="white" transform="translate(25.837 15.8433)"/>
</clipPath>
</defs>
</svg>
