<svg width="134" height="49" viewBox="0 0 134 49" fill="none" xmlns="http://www.w3.org/2000/svg">
<path d="M37.5425 29.5474C42.084 29.5474 45.7656 25.8599 45.7656 21.3111C45.7656 16.7623 42.084 13.0748 37.5425 13.0748C33.001 13.0748 29.3194 16.7623 29.3194 21.3111C29.3194 25.8599 33.001 29.5474 37.5425 29.5474Z" fill="white"/>
<path d="M44.6646 37.3821C49.2061 37.3821 52.8877 33.6946 52.8877 29.1458C52.8877 24.597 49.2061 20.9095 44.6646 20.9095C40.1231 20.9095 36.4415 24.597 36.4415 29.1458C36.4415 33.6946 40.1231 37.3821 44.6646 37.3821Z" fill="white"/>
<path d="M51.7947 29.7128C51.5196 33.4136 48.4379 36.3349 44.6722 36.3349C40.9066 36.3349 37.8249 33.4136 37.5497 29.7128H51.7947Z" fill="url(#paint0_linear_1_317)"/>
<path d="M44.6648 20.7362C44.3896 17.0354 41.3079 14.1141 37.5423 14.1141C33.7767 14.1141 30.695 17.0354 30.4198 20.7362H44.6648Z" fill="url(#paint1_linear_1_317)"/>
<path d="M44.6646 21.9174H30.4117C30.6869 25.6182 33.7686 28.5394 37.5342 28.5394H51.7871C51.5198 24.8308 48.4302 21.9174 44.6646 21.9174Z" fill="url(#paint2_linear_1_317)"/>
<path d="M60.4203 30.9961C58.8559 30.9961 57.6767 30.752 56.8905 30.2638C56.8276 30.2245 56.7962 30.1536 56.804 30.0827L56.9927 28.2323C57.0084 28.0906 57.1578 28.0197 57.2836 28.0906C57.4015 28.1615 57.5352 28.2323 57.6845 28.3032C57.9518 28.4292 58.227 28.5473 58.5257 28.6496C58.8166 28.752 59.1232 28.8308 59.4376 28.8937C59.7521 28.9567 60.0508 28.9882 60.3417 28.9882C60.947 28.9882 61.3637 28.8701 61.6074 28.6418C61.8511 28.4134 61.969 28.13 61.969 27.7992C61.969 27.4843 61.8826 27.2402 61.7096 27.0748C61.5367 26.9095 61.2929 26.7677 60.9706 26.6418C60.6483 26.5237 60.2552 26.3898 59.7993 26.2559C59.3433 26.1221 58.8244 25.9095 58.2506 25.6181C57.8182 25.374 57.4959 25.0748 57.2836 24.7284C57.0713 24.374 56.9377 23.8858 56.8984 23.2559C56.8984 22.815 56.977 22.3819 57.1264 21.9724C57.2757 21.563 57.5116 21.2008 57.826 20.8858C58.1405 20.5709 58.5493 20.3189 59.0367 20.122C59.7285 19.8543 60.6247 19.7677 61.7253 19.8779C61.9612 19.9016 62.2049 19.9409 62.4407 19.9882C63.1797 20.1457 63.7379 20.3346 64.1074 20.563C64.1702 20.6024 64.2017 20.6732 64.1938 20.7441L64.0052 22.5551C63.9894 22.7047 63.8243 22.7756 63.6986 22.689C63.6042 22.6181 63.502 22.5473 63.392 22.4764C63.1718 22.3347 62.9281 22.2087 62.6687 22.0984C62.4093 21.9882 62.142 21.9016 61.8511 21.8386C61.5681 21.7756 61.2851 21.7441 61.0099 21.7441C60.4911 21.7441 60.0666 21.8386 59.7285 22.0354C59.3905 22.2323 59.2254 22.5236 59.2254 22.9252C59.2254 23.2717 59.3354 23.5315 59.5556 23.6969C59.7757 23.8701 60.0666 24.0276 60.436 24.1693C60.4439 24.1693 60.4518 24.1772 60.4518 24.1772L60.8055 24.2795C60.892 24.311 61.0335 24.3504 61.2222 24.3977C61.4187 24.4449 61.5602 24.4843 61.6624 24.5158C62.1027 24.6418 62.5115 24.7992 62.8731 24.9646C63.2347 25.1378 63.5492 25.3504 63.8086 25.6103C64.068 25.8701 64.2646 26.1772 64.3982 26.5394C64.5319 26.9016 64.6026 27.3189 64.6026 27.8071C64.6341 29.941 63.2269 30.9961 60.4203 30.9961Z" fill="white"/>
<path d="M75.3654 25.9804H68.8011C68.6753 25.9804 68.581 26.0907 68.6045 26.2167C68.7696 27.0356 69.1391 27.6576 69.6973 28.0907C70.3105 28.5631 71.0023 28.7994 71.7806 28.7994C72.0243 28.7994 72.2916 28.7757 72.5746 28.7364C72.8655 28.697 73.1563 28.634 73.4472 28.5553C73.7381 28.4765 74.029 28.382 74.3198 28.2718C74.5007 28.2009 74.6736 28.1301 74.8387 28.0513C74.9645 27.9883 75.106 28.0828 75.1138 28.2167L75.216 30.0435C75.2239 30.1222 75.1767 30.2009 75.106 30.2324C74.084 30.7364 72.9284 30.9883 71.6312 30.9883C70.6878 30.9883 69.8545 30.8466 69.1313 30.5553C68.408 30.2718 67.8027 29.8781 67.3074 29.382C66.8121 28.886 66.4426 28.2954 66.1911 27.6183C65.9395 26.9332 65.8137 26.2009 65.8137 25.4135C65.8137 24.6419 65.9316 23.9174 66.1675 23.2403C66.4033 22.5631 66.7414 21.9726 67.1895 21.4607C67.6297 20.9489 68.1722 20.5552 68.8089 20.2639C69.4457 19.9804 70.169 19.8308 70.9708 19.8308C71.6469 19.8308 72.268 19.941 72.8497 20.1615C73.4315 20.382 73.9346 20.697 74.3513 21.1064C74.7758 21.5159 75.106 22.004 75.3418 22.5789C75.5777 23.1537 75.6956 23.7915 75.6956 24.4923C75.6956 24.8545 75.6484 25.2875 75.5541 25.7915C75.5462 25.9096 75.4598 25.9804 75.3654 25.9804ZM68.8797 24.1694H72.7869C72.8969 24.1694 72.9912 24.0749 72.9834 23.9647C72.9519 23.4844 72.7947 23.0592 72.5117 22.6812C72.1972 22.2481 71.702 22.0355 71.0416 22.0355C70.3812 22.0355 69.8467 22.2324 69.4457 22.6182C69.092 22.9568 68.8404 23.3899 68.691 23.9253C68.6596 24.0513 68.7539 24.1694 68.8797 24.1694Z" fill="white"/>
<path d="M86.7487 28.7992L86.5285 30.8228C86.5207 30.9252 86.4342 30.996 86.332 30.996H85.538C84.4767 30.996 83.7141 30.6496 83.2503 29.9488C83.1874 29.8464 83.038 29.8464 82.9516 29.9252C82.2126 30.6338 81.1749 30.9882 79.8384 30.9882C79.3903 30.9882 78.9815 30.9094 78.6042 30.7598C78.2268 30.6102 77.8966 30.3976 77.6136 30.1141C77.3306 29.8307 77.1184 29.5 76.9611 29.1063C76.8039 28.7126 76.7253 28.2637 76.7253 27.7598C76.7253 27.0275 76.9375 26.4212 77.3699 25.933C77.8023 25.4448 78.3212 25.0511 78.9422 24.7598C79.5554 24.4684 80.2158 24.2558 80.9076 24.122C81.5208 24.0118 82.0711 23.9409 82.5664 23.9173C82.6764 23.9094 82.7629 23.8149 82.7472 23.7125C82.7 23.1692 82.5428 22.7834 82.2912 22.5472C82.0082 22.2795 81.5208 22.1456 80.829 22.1456C80.0428 22.1456 79.1466 22.3818 78.1325 22.8464C78.0146 22.9015 77.8731 22.8228 77.8573 22.6968L77.6687 20.933C77.6608 20.8464 77.708 20.7676 77.7866 20.7283C79.0759 20.1377 80.3337 19.8385 81.5679 19.8385C84.1622 19.8385 85.4594 21.2795 85.4594 24.1614V27.0669C85.4594 27.4527 85.4672 27.7598 85.4908 27.996C85.5144 28.2244 85.5537 28.3976 85.6166 28.5236C85.6795 28.6496 85.7817 28.7204 85.9075 28.7519C86.0333 28.7834 86.1984 28.7913 86.4028 28.7913H86.7487V28.7992ZM82.7943 28.0826V25.933C82.7943 25.8149 82.6921 25.7283 82.5821 25.7362C82.244 25.7677 81.906 25.8228 81.5837 25.8936C81.1906 25.9803 80.8447 26.1062 80.5381 26.2716C80.2394 26.437 79.9957 26.6338 79.807 26.8622C79.6183 27.0905 79.524 27.3582 79.524 27.6574C79.524 28.5157 80.0035 28.9488 80.9626 28.9488C81.6073 28.9488 82.1969 28.7126 82.7236 28.2322C82.7708 28.2007 82.7943 28.1378 82.7943 28.0826Z" fill="white"/>
<path d="M92.1575 29.0198L91.961 30.823C91.9532 30.9253 91.8667 30.9962 91.7645 30.9962H90.9783C90.0585 30.9962 89.3746 30.7364 88.9186 30.2088C88.4627 29.6891 88.2347 29.0041 88.2347 28.1773V14.8308C88.2347 14.7205 88.3212 14.6339 88.4312 14.6339H90.7032C90.8132 14.6339 90.8997 14.7205 90.8997 14.8308V27.0749C90.8997 27.4922 90.9076 27.8151 90.9312 28.0434C90.9547 28.2718 91.0098 28.445 91.0963 28.5474C91.1827 28.6576 91.3085 28.7206 91.4815 28.7521C91.6072 28.7757 91.7723 28.7836 91.9767 28.7915C92.0868 28.7993 92.1733 28.9017 92.1575 29.0198Z" fill="white"/>
<path d="M103.384 30.7758H101.237C101.135 30.7758 101.057 30.697 101.049 30.5947L101.017 30.1695C100.215 30.7128 99.3428 30.9884 98.3916 30.9884C97.5425 30.9884 96.7957 30.8467 96.1432 30.5553C95.4907 30.2718 94.9404 29.8703 94.5001 29.3585C94.052 28.8466 93.714 28.2561 93.4782 27.5789C93.2423 26.9017 93.1244 26.1773 93.1244 25.4057C93.1244 24.634 93.2423 23.9017 93.486 23.2246C93.7297 22.5395 94.0756 21.949 94.5316 21.445C94.9797 20.9411 95.5379 20.5474 96.1825 20.2639C96.835 19.9805 97.5661 19.8308 98.3837 19.8308C99.2249 19.8308 99.9639 20.012 100.616 20.3742C100.742 20.445 100.892 20.3427 100.892 20.2009V14.8308C100.892 14.7206 100.978 14.6418 101.08 14.6418H103.36C103.47 14.6418 103.549 14.7285 103.549 14.8308V30.5868C103.572 30.6892 103.486 30.7758 103.384 30.7758ZM98.5803 22.0435C97.7234 22.0435 97.063 22.3505 96.5913 22.9568C96.1196 23.5632 95.8838 24.3899 95.8838 25.4214C95.8838 26.4529 96.1196 27.2797 96.5913 27.886C97.063 28.4923 97.7234 28.7994 98.5803 28.7994C99.4057 28.7994 100.027 28.5002 100.428 27.8939C100.836 27.2876 101.041 26.4687 101.041 25.4214C101.041 24.3742 100.836 23.5474 100.428 22.949C100.019 22.3427 99.4057 22.0435 98.5803 22.0435Z" fill="white"/>
<defs>
<linearGradient id="paint0_linear_1_317" x1="37.5497" y1="33.0238" x2="51.7947" y2="33.0238" gradientUnits="userSpaceOnUse">
<stop stop-color="#17B4FB"/>
<stop offset="1" stop-color="#01DCFA"/>
</linearGradient>
<linearGradient id="paint1_linear_1_317" x1="30.4198" y1="17.4252" x2="44.6648" y2="17.4252" gradientUnits="userSpaceOnUse">
<stop stop-color="#445DFC"/>
<stop offset="1" stop-color="#2D8CFB"/>
</linearGradient>
<linearGradient id="paint2_linear_1_317" x1="30.4117" y1="25.2284" x2="51.7871" y2="25.2284" gradientUnits="userSpaceOnUse">
<stop stop-color="#2D8CFB"/>
<stop offset="1" stop-color="#17B4FB"/>
</linearGradient>
</defs>
</svg>
