<svg width="133" height="49" viewBox="0 0 133 49" fill="none" xmlns="http://www.w3.org/2000/svg">
<g clip-path="url(#clip0_1_313)">
<path d="M26.0544 14.7174L23.1305 16.9542C23.041 17.0226 22.9885 17.1292 22.9885 17.2422V19.102C22.9885 19.3987 23.324 19.5692 23.5615 19.3934L27.5482 16.4415C27.7216 16.3132 27.7448 16.0615 27.5979 15.9032L26.5351 14.7584C26.4091 14.6227 26.2014 14.605 26.0544 14.7174Z" fill="white"/>
<path d="M35.0594 22.7183L24.6129 30.0023C24.413 30.1417 24.4054 30.4363 24.5979 30.5859L25.9006 31.5984C26.0247 31.6948 26.1966 31.6993 26.3255 31.6095L36.8192 24.2962C37.0231 24.1542 37.0262 23.8521 36.8253 23.7058L35.4754 22.7226C35.3517 22.6325 35.1849 22.6308 35.0594 22.7183Z" fill="white"/>
<path d="M38.0313 25.7583L28.1458 32.5712C27.9444 32.7099 27.936 33.0058 28.1292 33.1559L29.4332 34.1694C29.5556 34.2645 29.7246 34.2704 29.8531 34.1839L38.4346 28.4122C38.5345 28.3451 38.5944 28.2323 38.5944 28.1115V26.0568C38.5944 25.7657 38.27 25.5938 38.0313 25.7583Z" fill="white"/>
<path d="M32.0252 14.8298L23.1299 21.6631C23.0408 21.7315 22.9885 21.8379 22.9885 21.9506V23.8015C22.9885 24.0999 23.3274 24.2701 23.5645 24.0907L33.525 16.5538C33.6958 16.4246 33.7175 16.1749 33.5717 16.0178L32.5065 14.8704C32.3803 14.7344 32.1722 14.7169 32.0252 14.8298Z" fill="white"/>
<path d="M38.4337 15.4019L23.1402 26.3041C23.0451 26.372 22.9885 26.482 22.9885 26.5993V28.4639C22.9885 28.7582 23.3193 28.9293 23.5574 28.7582L38.8508 17.7669C38.9453 17.699 39.0014 17.5893 39.0014 17.4725V15.697C39.0014 15.4034 38.6719 15.232 38.4337 15.4019Z" fill="white"/>
<path d="M52.9314 31.0778C55.6283 31.0778 57.7932 28.8636 57.7932 26.0957C57.7932 23.3278 55.6283 21.1136 52.9314 21.1136C51.8306 21.1136 50.8032 21.4826 49.996 22.1284V17.3308H47.5743V30.801H49.8309V29.9338C50.6749 30.6534 51.7572 31.0778 52.9314 31.0778ZM52.6196 28.8266C51.1701 28.8266 49.996 27.6272 49.996 26.0957C49.996 24.5457 51.1701 23.3647 52.6196 23.3647C54.0689 23.3647 55.2431 24.5457 55.2431 26.0957C55.2431 27.6272 54.0689 28.8266 52.6196 28.8266Z" fill="white"/>
<path d="M69.0003 21.3902H66.7068V22.2206C65.8813 21.5193 64.8172 21.1134 63.6615 21.1134C60.9646 21.1134 58.7997 23.3277 58.7997 26.0955C58.7997 28.8634 60.9646 31.0777 63.6615 31.0777C64.8172 31.0777 65.8813 30.6717 66.7068 29.9705V30.8009H69.0003V21.3902ZM61.3498 26.0955C61.3498 24.5456 62.5058 23.3646 63.9732 23.3646C65.4228 23.3646 66.5785 24.5456 66.5785 26.0955C66.5785 27.6455 65.4228 28.8265 63.9732 28.8265C62.5058 28.8265 61.3498 27.6455 61.3498 26.0955Z" fill="white"/>
<path d="M70.1183 29.8045C70.8889 30.561 72.3566 31.0777 73.6958 31.0777C75.7689 31.0777 77.1081 29.8598 77.1081 28.0699C77.1081 26.7783 76.4294 26.0033 74.6865 25.2467L74.393 25.1176C73.237 24.6194 72.9252 24.3426 72.9252 23.9366C72.9252 23.4569 73.3289 23.1801 74.0261 23.1801C74.6681 23.1801 75.2369 23.4015 75.8238 23.8259L76.8697 21.9991C76.1358 21.464 74.9616 21.1134 73.8793 21.1134C71.8062 21.1134 70.4118 22.3497 70.4118 24.0842C70.4118 25.3575 71.1824 26.1694 72.8518 26.8705L73.2555 27.0366C74.2829 27.4795 74.558 27.7378 74.558 28.1807C74.558 28.7158 74.1728 29.011 73.4939 29.011C72.8152 29.011 72.0631 28.7158 71.2925 28.1069L70.1183 29.8045Z" fill="white"/>
<path d="M78.0031 23.5121H79.6907V30.8008H82.1125V23.5121H84.204V21.3901H82.1125V18.7145H79.6907V21.3901H78.0031V23.5121Z" fill="white"/>
<path d="M85.0835 18.6038C85.0835 19.4526 85.7622 20.0799 86.6246 20.0799C87.5053 20.0799 88.2022 19.4341 88.2022 18.6038C88.2022 17.7549 87.5053 17.1276 86.6246 17.1276C85.7622 17.1276 85.0835 17.7549 85.0835 18.6038ZM85.432 30.8008H87.8538V21.3901H85.432V30.8008Z" fill="white"/>
<path d="M89.2046 26.0955C89.2046 28.8634 91.4978 31.0777 94.3782 31.0777C97.277 31.0777 99.5702 28.8634 99.5702 26.0955C99.5702 23.3092 97.277 21.1134 94.3782 21.1134C91.4978 21.1134 89.2046 23.3277 89.2046 26.0955ZM91.7547 26.0955C91.7547 24.564 92.9104 23.3646 94.3782 23.3646C95.8641 23.3646 97.0016 24.564 97.0016 26.0955C97.0016 27.6271 95.8641 28.8265 94.3782 28.8265C92.9104 28.8265 91.7547 27.6271 91.7547 26.0955Z" fill="white"/>
<path d="M100.928 30.8009H103.35V25.1914C103.35 24.1581 104.176 23.3277 105.221 23.3277C106.267 23.3277 107.001 24.1581 107.001 25.2652V30.8009H109.423V24.8593C109.423 22.6265 107.9 21.0765 105.717 21.0765C104.653 21.0765 103.754 21.4271 103.185 22.0545V21.3902H100.928V30.8009Z" fill="white"/>
</g>
<defs>
<clipPath id="clip0_1_313">
<rect width="86.4345" height="19.6014" fill="white" transform="translate(22.9885 14.6436)"/>
</clipPath>
</defs>
</svg>
