<svg width="133" height="49" viewBox="0 0 133 49" fill="none" xmlns="http://www.w3.org/2000/svg">
<path d="M104.834 17.2285C105.176 17.5718 105.579 17.7435 106.044 17.7435C106.524 17.7435 106.935 17.5718 107.276 17.2285C107.618 16.8851 107.789 16.4797 107.789 16.0122C107.789 15.5447 107.618 15.1356 107.276 14.785C106.935 14.4343 106.524 14.259 106.044 14.259C105.579 14.259 105.176 14.4343 104.834 14.785C104.493 15.1356 104.322 15.5447 104.322 16.0122C104.322 16.4797 104.493 16.8851 104.834 17.2285Z" fill="white"/>
<path d="M68.048 21.711C68.048 21.7469 68.019 21.776 67.9832 21.776H65.584V26.3343C65.584 26.7141 65.6785 26.9917 65.8675 27.167C66.0565 27.3424 66.3327 27.441 66.6961 27.4629C67.0286 27.4829 67.434 27.4816 67.9125 27.4588L67.9248 27.4582L67.9469 27.4571L67.9797 27.4555C68.0169 27.4536 68.048 27.4832 68.048 27.5204V29.9578C68.048 29.9909 68.0232 30.0187 67.9903 30.0223C67.9744 30.0241 67.9583 30.0259 67.9464 30.0271C66.0668 30.2285 64.7378 30.0422 63.9595 29.4681C63.1672 28.8837 62.7711 27.8391 62.7711 26.3343V21.776H60.9389C60.9031 21.776 60.874 21.7469 60.874 21.711V19.1236C60.874 19.0877 60.9031 19.0586 60.9389 19.0586H62.7711V17.2488C62.7711 17.1973 62.8014 17.1506 62.8484 17.1299L65.4929 15.9601C65.5358 15.9412 65.584 15.9726 65.584 16.0196V19.0586H67.9832C68.019 19.0586 68.048 19.0877 68.048 19.1236V21.711Z" fill="white"/>
<path d="M73.1487 20.9431C73.4104 20.2419 73.8429 19.7159 74.4461 19.3653C74.9982 19.0444 75.6082 18.8703 76.2759 18.8431C76.3082 18.8418 76.3577 18.8408 76.3976 18.8402C76.4337 18.8396 76.4632 18.8688 76.4632 18.905V21.8786C76.4632 21.9407 76.4093 21.9885 76.3476 21.9829C75.5364 21.9092 74.8081 22.0885 74.1627 22.521C73.4867 22.9739 73.1487 23.7263 73.1487 24.7782V29.9508C73.1487 29.9867 73.1197 30.0158 73.0838 30.0158H70.4007C70.3648 30.0158 70.3358 29.9867 70.3358 29.9508V19.1235C70.3358 19.0876 70.3648 19.0585 70.4007 19.0585H73.0838C73.1197 19.0585 73.1487 19.0876 73.1487 19.1235V20.9431Z" fill="white"/>
<path fill-rule="evenodd" clip-rule="evenodd" d="M86.4494 19.0583C86.4136 19.0583 86.3845 19.0874 86.3845 19.1233V20.3513C85.5413 19.2847 84.3566 18.7515 82.8302 18.7515C81.3765 18.7515 80.1299 19.3103 79.0905 20.428C78.0511 21.5456 77.5314 22.9153 77.5314 24.537C77.5314 26.1586 78.0511 27.5283 79.0905 28.6459C80.1299 29.7636 81.3765 30.3224 82.8302 30.3224C84.3566 30.3224 85.5413 29.7892 86.3845 28.7226V29.9506C86.3845 29.9865 86.4136 30.0156 86.4494 30.0156H89.1325C89.1684 30.0156 89.1974 29.9865 89.1974 29.9506V19.1233C89.1974 19.0874 89.1684 19.0583 89.1325 19.0583H86.4494ZM81.1945 26.7724C81.7615 27.3422 82.4811 27.6271 83.3533 27.6271C84.2255 27.6271 84.9487 27.3385 85.523 26.7614C86.0972 26.1843 86.3843 25.4429 86.3843 24.5371C86.3843 23.6313 86.0972 22.8898 85.523 22.3128C84.9487 21.7357 84.2255 21.4471 83.3533 21.4471C82.4811 21.4471 81.7615 21.7357 81.1945 22.3128C80.6276 22.8898 80.3441 23.6313 80.3441 24.5371C80.3441 25.4429 80.6276 26.188 81.1945 26.7724Z" fill="white"/>
<path fill-rule="evenodd" clip-rule="evenodd" d="M101.415 20.428C100.375 19.3103 99.1216 18.7515 97.6534 18.7515C96.127 18.7515 94.9495 19.2847 94.1209 20.3513V19.1233C94.1209 19.0874 94.0918 19.0583 94.056 19.0583H91.3728C91.337 19.0583 91.3079 19.0874 91.3079 19.1233V34.3335C91.3079 34.3694 91.337 34.3985 91.3728 34.3985H94.056C94.0918 34.3985 94.1209 34.3694 94.1209 34.3335V28.7226C94.9495 29.7892 96.127 30.3224 97.6534 30.3224C99.1216 30.3224 100.375 29.7636 101.415 28.6459C102.454 27.5283 102.974 26.1586 102.974 24.537C102.974 22.9153 102.454 21.5456 101.415 20.428ZM94.9711 26.7724C95.538 27.3422 96.2576 27.6271 97.1298 27.6271C98.002 27.6271 98.7253 27.3385 99.2995 26.7614C99.8737 26.1843 100.161 25.4429 100.161 24.5371C100.161 23.6313 99.8737 22.8898 99.2995 22.3128C98.7253 21.7357 98.002 21.4471 97.1298 21.4471C96.2576 21.4471 95.538 21.7357 94.9711 22.3128C94.4041 22.8898 94.1206 23.6313 94.1206 24.5371C94.1206 25.4429 94.4041 26.188 94.9711 26.7724Z" fill="white"/>
<path d="M104.714 30.0158C104.678 30.0158 104.649 29.9867 104.649 29.9509V19.1235C104.649 19.0876 104.678 19.0585 104.714 19.0585H107.397C107.433 19.0585 107.462 19.0876 107.462 19.1235V29.9509C107.462 29.9867 107.433 30.0158 107.397 30.0158H104.714Z" fill="white"/>
<path d="M54.503 22.8824C54.1178 22.6998 53.9251 22.4624 53.9251 22.1702C53.9251 21.8926 54.0451 21.6734 54.2849 21.5127C54.5248 21.352 54.8264 21.2717 55.1899 21.2717C55.8868 21.2717 56.4132 21.5447 56.7692 22.0907C56.794 22.1288 56.8423 22.1442 56.8839 22.1258L59.2572 21.0705C59.2925 21.0548 59.3064 21.0119 59.2867 20.9785C59.2605 20.9342 59.2261 20.8765 59.2032 20.8403C58.7964 20.1976 58.2702 19.7189 57.6103 19.3541C56.8834 18.9524 56.0766 18.7515 55.1899 18.7515C54.0124 18.7515 53.0275 19.0619 52.2352 19.6829C51.4429 20.3038 51.0468 21.1548 51.0468 22.2359C51.0468 22.9518 51.2394 23.5471 51.6247 24.0219C52.0099 24.4968 52.4787 24.8437 53.0311 25.0629C53.5835 25.282 54.1359 25.4647 54.6883 25.6108C55.2408 25.7569 55.7096 25.9212 56.0948 26.1038C56.48 26.2865 56.6727 26.5239 56.6727 26.8161C56.6727 27.4443 56.1711 27.7584 55.1681 27.7584C54.2133 27.7584 53.5516 27.4038 53.1831 26.6945C53.1515 26.6336 53.079 26.6057 53.0164 26.6336L50.6498 27.6875C50.6164 27.7023 50.6018 27.7418 50.6177 27.7747C50.6273 27.7946 50.6374 27.8154 50.6447 27.8302C51.4718 29.4917 52.9796 30.3224 55.1681 30.3224C56.4183 30.3224 57.4613 30.0193 58.2972 29.4129C59.1331 28.8066 59.551 27.941 59.551 26.8161C59.551 26.071 59.3584 25.4501 58.9731 24.9533C58.5879 24.4566 58.1191 24.1023 57.5667 23.8905C57.0143 23.6786 56.4619 23.5033 55.9095 23.3645C55.357 23.2257 54.8882 23.065 54.503 22.8824Z" fill="white"/>
<path d="M24.405 21.2738C24.405 17.967 24.405 16.3136 25.4307 15.2863C26.4563 14.259 28.1071 14.259 31.4086 14.259H37.6041C40.9056 14.259 42.5563 14.259 43.582 15.2863C44.6076 16.3136 44.6076 17.967 44.6076 21.2738V27.4792C44.6076 30.786 44.6076 32.4394 43.582 33.4667C42.5563 34.494 40.9056 34.494 37.6041 34.494H31.4086C28.1071 34.494 26.4563 34.494 25.4307 33.4667C24.405 32.4394 24.405 30.786 24.405 27.4792V21.2738Z" fill="#4945FF"/>
<path fill-rule="evenodd" clip-rule="evenodd" d="M38.3448 20.397H31.5433V23.8706H35.0113V27.3443H38.4795V20.5319C38.4795 20.4574 38.4192 20.397 38.3448 20.397Z" fill="white"/>
<rect x="34.8767" y="23.8706" width="0.134684" height="0.1349" fill="white"/>
<path d="M31.5433 23.8706H34.8767C34.9511 23.8706 35.0114 23.931 35.0114 24.0055V27.3443H31.678C31.6036 27.3443 31.5433 27.2839 31.5433 27.2094V23.8706Z" fill="#9593FF"/>
<path d="M35.0114 27.3442H38.4795L35.1264 30.7028C35.084 30.7453 35.0114 30.7152 35.0114 30.6551V27.3442Z" fill="#9593FF"/>
<path d="M31.5432 23.8706H28.2377C28.1777 23.8706 28.1477 23.798 28.1901 23.7555L31.5432 20.397V23.8706Z" fill="#9593FF"/>
</svg>
