<svg width="133" height="49" viewBox="0 0 133 49" fill="none" xmlns="http://www.w3.org/2000/svg">
<g clip-path="url(#clip0_1_319)">
<path d="M30.6676 10.3025C28.9214 10.6211 27.4979 11.8302 26.9302 13.4802C26.6549 14.279 26.6678 13.9516 26.6678 20.8309C26.6678 27.7015 26.6635 27.5618 26.9302 28.6574C27.1151 29.4212 27.2742 29.8534 27.6355 30.6042C28.5774 32.5641 30.0741 34.0831 32.0223 35.0565C33.1964 35.6458 34.7834 36.0386 35.9704 36.0386H36.2328L35.8371 35.768C35.1963 35.3184 34.7619 34.9561 34.2157 34.4017C32.4352 32.599 31.3428 30.3903 30.9815 27.8542C30.8783 27.1253 30.8783 25.5626 30.9858 24.8424C31.2826 22.7603 32.0954 20.8396 33.3599 19.2333C33.9878 18.4389 35.0114 17.4829 35.8672 16.9024C36.2113 16.6711 36.2457 16.6579 36.4908 16.6579C37.2177 16.6579 38.4391 16.8806 39.2691 17.1643C39.867 17.3695 40.8518 17.854 41.3937 18.2119C45.4279 20.8876 46.8902 26.13 44.8215 30.5169C44.3613 31.4859 43.8065 32.2978 43.0539 33.0879C42.2797 33.8997 41.4325 34.5239 40.4089 35.0347C39.3079 35.5846 38.181 35.8989 36.9123 36.0037L36.2543 36.0604L36.7403 36.3311C37.9445 36.9946 39.252 37.4354 40.6239 37.6406C41.3206 37.741 42.9635 37.741 43.6259 37.6406C44.3312 37.5315 45.0365 37.3612 45.6558 37.1517C49.8792 35.72 52.8812 31.8831 53.2941 27.3828C53.3586 26.6888 53.3242 25.3225 53.2253 24.6896C53.0489 23.5372 52.7221 22.4809 52.1973 21.394C51.2598 19.4559 49.8147 17.8234 48.0213 16.6798C47.5267 16.3655 46.4687 15.8373 45.9182 15.6322C45.3591 15.4227 44.3183 15.1564 43.699 15.0647C43.0195 14.9643 41.8195 14.9294 41.1357 14.9949C39.5444 15.1477 37.8628 15.6846 36.5639 16.4528C36.4177 16.5445 36.293 16.6143 36.2844 16.6143C36.2758 16.6143 36.2586 16.1298 36.2457 15.5318C36.2199 14.3794 36.1683 14.0258 35.9447 13.4278C35.3726 11.8826 34.1297 10.7652 32.5513 10.368C32.0868 10.2545 31.1234 10.2196 30.6676 10.3025Z" fill="url(#paint0_linear_1_319)"/>
<path d="M78.2487 20.0804C77.6898 20.2637 77.3584 20.7526 77.3627 21.3724C77.3627 21.9136 77.5992 22.3109 78.0597 22.5378C78.266 22.6426 78.3605 22.6601 78.6488 22.6601C79.2121 22.6601 79.5905 22.4156 79.8443 21.8962C80.0549 21.4553 79.9259 20.77 79.5603 20.4034C79.2422 20.0804 78.6747 19.9407 78.2487 20.0804Z" fill="#F4F4F4"/>
<path d="M105.263 22.1603V24.4127L104.997 24.1639C103.745 23.0158 101.487 23.2865 100.313 24.7269C99.0615 26.2678 99.0615 28.6947 100.313 30.2356C101.496 31.6891 103.754 31.9511 105.018 30.7769L105.306 30.5062V30.9253V31.3443H106.317H107.328V25.6261V19.908H106.296H105.263V22.1603ZM103.857 25.4297C104.244 25.5127 104.537 25.6785 104.803 25.9753C105.19 26.4031 105.349 26.8353 105.349 27.4813C105.345 27.957 105.302 28.1797 105.126 28.5376C104.967 28.8693 104.58 29.2535 104.266 29.4019C103.496 29.7554 102.571 29.5852 102.025 28.9915C101.634 28.5594 101.479 28.136 101.479 27.4813C101.479 26.8309 101.634 26.4031 102.016 25.9797C102.287 25.6872 102.584 25.5127 102.954 25.4297C103.302 25.3511 103.504 25.3511 103.857 25.4297Z" fill="#F4F4F4"/>
<path d="M61.1602 25.9668V31.5147H63.7621C65.3663 31.5147 66.5319 31.4973 66.8029 31.4667C67.4266 31.3969 67.9898 31.2441 68.4671 31.0084C69.1939 30.6504 69.7058 30.0219 69.9164 29.2406C69.9682 29.0485 69.9941 28.7909 69.9941 28.4156C69.9984 27.9485 69.9811 27.8219 69.8952 27.5469C69.6799 26.8835 69.1339 26.2593 68.5362 25.9886C68.3812 25.9188 68.2565 25.8533 68.2565 25.8402C68.2565 25.8271 68.3855 25.7529 68.5405 25.67C69.452 25.1898 69.9423 24.1073 69.7619 22.9724C69.6928 22.5228 69.5767 22.2129 69.3445 21.8593C69.0994 21.4796 68.7986 21.2133 68.3424 20.9776C67.9125 20.755 67.689 20.6764 67.1124 20.5498C66.708 20.4625 66.5405 20.4581 63.9256 20.4407L61.1602 20.4232V25.9668ZM66.4158 22.4573C67.0092 22.5839 67.3446 22.8327 67.4607 23.2343C67.6674 23.9371 67.3834 24.5612 66.7468 24.7926C66.4801 24.893 66.4201 24.8974 64.9148 24.9148L63.3535 24.9279V23.6621V22.3918H64.7427C65.7749 22.3918 66.2009 22.4093 66.4158 22.4573ZM66.7727 26.9838C67.4179 27.1803 67.6929 27.4989 67.7317 28.0925C67.7705 28.6862 67.5897 29.079 67.1857 29.306C66.7943 29.5199 66.5319 29.5505 64.8717 29.5505H63.3535V28.2148V26.8791L64.9577 26.9009C66.2134 26.914 66.6048 26.9315 66.7727 26.9838Z" fill="#F4F4F4"/>
<path d="M74.7355 23.6753C74.1805 23.8062 73.7632 24.0463 73.4451 24.413L73.2517 24.6399V24.234V23.8324H72.2625H71.2733V27.6736V31.5148H72.3053H73.3333L73.3462 29.1228L73.3592 26.7351L73.4796 26.4732C73.7934 25.7923 74.404 25.5042 75.2858 25.6177C75.5007 25.6482 75.7804 25.705 75.9051 25.7487C76.0686 25.8054 76.1459 25.8141 76.1545 25.7792C76.1761 25.705 76.4342 23.9066 76.4342 23.828C76.4342 23.6665 75.2383 23.5574 74.7355 23.6753Z" fill="#F4F4F4"/>
<path d="M83.865 23.7366C83.521 23.8064 83.1382 23.9592 82.8067 24.1556C82.5189 24.3302 81.9941 24.8191 81.7834 25.1116C81.5426 25.4433 81.2932 25.9933 81.1727 26.4516C81.0735 26.827 81.061 26.9667 81.0566 27.5778C81.0566 28.1584 81.0692 28.3417 81.1469 28.656C81.3316 29.3937 81.6112 29.9262 82.08 30.4282C82.7942 31.1964 83.71 31.5762 84.7079 31.5151C85.4907 31.467 86.054 31.2444 86.5486 30.7818L86.8368 30.5155V30.8865C86.8368 31.3579 86.7807 31.6591 86.6219 31.9952C86.2003 32.9119 85.0048 33.2742 83.6026 32.9075C83.1852 32.7984 82.5616 32.5321 82.3208 32.3575L82.1917 32.2615L82.1274 32.4099C82.0972 32.4885 81.9337 32.8682 81.7662 33.2523L81.4649 33.9507L81.5599 34.0249C81.8564 34.265 82.7079 34.6055 83.3229 34.7321C85.8347 35.2559 87.8645 34.4309 88.5614 32.5976C88.8411 31.8643 88.8325 32.0607 88.8454 27.783L88.8623 23.8894H87.8476H86.8368V24.2909V24.6925L86.6345 24.4961C85.9336 23.8108 84.8973 23.5271 83.865 23.7366ZM85.5939 25.6616C86.4885 25.9322 87.0388 26.8925 86.8925 27.9227C86.798 28.6036 86.4281 29.1361 85.852 29.4242C85.5335 29.5814 85.5205 29.5857 85.0346 29.5857C84.3984 29.5857 84.1572 29.4941 83.7618 29.1187C83.452 28.8262 83.2586 28.4857 83.1766 28.0885C83.108 27.735 83.1468 27.1151 83.2629 26.8052C83.4606 26.2814 83.9081 25.8405 84.3984 25.6834C84.7337 25.5743 85.2711 25.5656 85.5939 25.6616Z" fill="#F4F4F4"/>
<path d="M93.1993 23.492C92.3651 23.6404 91.5524 24.125 91.0448 24.771C89.8278 26.3249 89.8407 28.7126 91.0794 30.236C92.2619 31.6895 94.5199 31.9514 95.7845 30.7772L96.0724 30.5066V30.9257V31.3447H97.0831H98.0939V27.5035V23.6623H97.0831H96.0724V24.0769V24.4916L95.9174 24.317C95.6723 24.042 95.1651 23.7234 94.7694 23.5924C94.3736 23.4658 93.6166 23.4134 93.1993 23.492ZM94.6145 25.4257C94.9973 25.5087 95.2208 25.6309 95.5134 25.9146C95.9261 26.3118 96.1155 26.8051 96.1155 27.4817C96.1155 28.1626 95.9261 28.6515 95.5091 29.0531C95.2122 29.3411 94.9157 29.4896 94.494 29.5594C93.8488 29.6685 93.2123 29.4546 92.791 28.9919C92.3996 28.5598 92.2446 28.1364 92.2446 27.4817C92.2446 26.8312 92.3996 26.4035 92.7824 25.9801C93.0534 25.6876 93.3499 25.513 93.7198 25.4301C94.0681 25.3515 94.2705 25.3515 94.6145 25.4257Z" fill="#F4F4F4"/>
<path d="M77.7141 27.6735V31.5147H78.7464H79.7784V27.6735V23.8323H78.7464H77.7141V27.6735Z" fill="#F4F4F4"/>
</g>
<defs>
<linearGradient id="paint0_linear_1_319" x1="26.6677" y1="10.2568" x2="43.4606" y2="42.8061" gradientUnits="userSpaceOnUse">
<stop stop-color="#FF467C"/>
<stop offset="1" stop-color="#E82340"/>
</linearGradient>
<clipPath id="clip0_1_319">
<rect width="81.1903" height="27.4996" fill="white" transform="translate(26.624 10.2415)"/>
</clipPath>
</defs>
</svg>
