<svg width="133" height="49" viewBox="0 0 133 49" fill="none" xmlns="http://www.w3.org/2000/svg">
<g clip-path="url(#clip0_1_309)">
<mask id="mask0_1_309" style="mask-type:luminance" maskUnits="userSpaceOnUse" x="22" y="11" width="89" height="26">
<path d="M22.912 11.6351H110.363V36.2222H22.912V11.6351Z" fill="white"/>
</mask>
<g mask="url(#mask0_1_309)">
<path fill-rule="evenodd" clip-rule="evenodd" d="M46.4297 29.046C44.6595 29.046 43.1819 27.7659 43.1819 25.4677C43.1819 23.1695 44.6595 21.8896 46.4297 21.8896C47.527 21.8896 48.2585 22.355 48.6827 23.0532H48.712V22.1077H50.4968V28.8278H48.712V27.8823H48.6827C48.2585 28.5805 47.527 29.046 46.4297 29.046ZM46.8833 27.3586C47.9659 27.3586 48.712 26.6023 48.712 25.4677C48.712 24.3332 47.9659 23.5768 46.8833 23.5768C45.8006 23.5768 45.0545 24.3332 45.0545 25.4677C45.0545 26.6023 45.8006 27.3586 46.8833 27.3586ZM52.0476 31.7369V22.1077H53.8325V23.0532H53.8618C54.286 22.355 55.0175 21.8896 56.1147 21.8896C57.885 21.8896 59.3626 23.1695 59.3626 25.4677C59.3626 27.7659 57.885 29.046 56.1147 29.046C55.0175 29.046 54.286 28.5805 53.8618 27.8823H53.8325V31.7369H52.0476ZM55.6612 27.3586C56.7438 27.3586 57.4899 26.6023 57.4899 25.4677C57.4899 24.3332 56.7438 23.5768 55.6612 23.5768C54.5786 23.5768 53.8325 24.3332 53.8325 25.4677C53.8325 26.6023 54.5786 27.3586 55.6612 27.3586ZM60.533 31.7369V22.1077H62.318V23.0532H62.3471C62.7713 22.355 63.5028 21.8896 64.6001 21.8896C66.3703 21.8896 67.8481 23.1695 67.8481 25.4677C67.8481 27.7659 66.3703 29.046 64.6001 29.046C63.5028 29.046 62.7713 28.5805 62.3471 27.8823H62.318V31.7369H60.533ZM64.1464 27.3586C65.2292 27.3586 65.9752 26.6023 65.9752 25.4677C65.9752 24.3332 65.2292 23.5768 64.1464 23.5768C63.064 23.5768 62.318 24.3332 62.318 25.4677C62.318 26.6023 63.064 27.3586 64.1464 27.3586ZM71.8567 29.046C70.0862 29.046 68.6087 27.7659 68.6087 25.4677C68.6087 23.1695 70.0862 21.8896 71.8567 21.8896C72.9537 21.8896 73.6851 22.355 74.1097 23.0532H74.1389V22.1077H75.9236V28.8278H74.1389V27.8823H74.1097C73.6851 28.5805 72.9537 29.046 71.8567 29.046ZM72.31 27.3586C73.3928 27.3586 74.1389 26.6023 74.1389 25.4677C74.1389 24.3332 73.3928 23.5768 72.31 23.5768C71.2273 23.5768 70.4812 24.3332 70.4812 25.4677C70.4812 26.6023 71.2273 27.3586 72.31 27.3586ZM79.3031 18.6459H77.5038V28.8277H79.3031V18.6459ZM84.2629 21.8896C86.4135 21.8896 88.0079 23.3586 88.0079 25.4677C88.0079 27.5768 86.4135 29.046 84.2629 29.046C82.1123 29.046 80.5174 27.5768 80.5174 25.4677C80.5174 23.3586 82.1123 21.8896 84.2629 21.8896ZM84.2629 23.5768C83.1655 23.5768 82.3608 24.3186 82.3608 25.4677C82.3608 26.6168 83.1655 27.3586 84.2629 27.3586C85.3599 27.3586 86.15 26.6168 86.15 25.4677C86.15 24.3186 85.3599 23.5768 84.2629 23.5768ZM92.4994 21.8896C94.65 21.8896 96.2445 23.3586 96.2445 25.4677C96.2445 27.5768 94.65 29.046 92.4994 29.046C90.3488 29.046 88.754 27.5768 88.754 25.4677C88.754 23.3586 90.3488 21.8896 92.4994 21.8896ZM92.4994 23.5768C91.402 23.5768 90.5973 24.3186 90.5973 25.4677C90.5973 26.6168 91.402 27.3586 92.4994 27.3586C93.5968 27.3586 94.3865 26.6168 94.3865 25.4677C94.3865 24.3186 93.5968 23.5768 92.4994 23.5768ZM99.6386 29.046C101.321 29.046 102.433 28.3768 102.433 26.8932C102.433 25.8896 101.892 25.3223 100.941 24.9296L99.7264 24.4059C99.2585 24.2023 99.0828 24.0568 99.0828 23.795C99.0828 23.5478 99.2439 23.3878 99.7705 23.3878C100.385 23.3878 101.058 23.5914 101.672 23.8532L102.272 22.355C101.482 22.0641 100.648 21.8896 99.8729 21.8896C98.1757 21.8896 97.254 22.6168 97.254 23.9259C97.254 24.7987 97.7078 25.4677 98.7756 25.9332L99.9899 26.4569C100.385 26.646 100.575 26.7768 100.575 27.0387C100.575 27.3732 100.297 27.5187 99.741 27.5187C98.9217 27.5187 98.1465 27.2132 97.4734 26.8205L96.742 28.3332C97.6345 28.8278 98.7023 29.046 99.6386 29.046ZM106.295 29.046C104.525 29.046 103.048 27.7659 103.048 25.4677C103.048 23.1695 104.525 21.8896 106.295 21.8896C107.393 21.8896 108.124 22.355 108.548 23.0532H108.578V22.1077H110.363V28.8278H108.578V27.8823H108.548C108.124 28.5805 107.393 29.046 106.295 29.046ZM106.749 27.3586C107.831 27.3586 108.578 26.6023 108.578 25.4677C108.578 24.3332 107.831 23.5768 106.749 23.5768C105.666 23.5768 104.92 24.3332 104.92 25.4677C104.92 26.6023 105.666 27.3586 106.749 27.3586Z" fill="white"/>
<path d="M30.8055 32.7683C35.165 32.7683 38.6991 29.2546 38.6991 24.9203C38.6991 20.5859 35.165 17.0723 30.8055 17.0723C26.4461 17.0723 22.912 20.5859 22.912 24.9203C22.912 29.2546 26.4461 32.7683 30.8055 32.7683Z" fill="#EA6D39"/>
<path d="M30.8055 32.7683C35.165 32.7683 38.6991 29.2546 38.6991 24.9203C38.6991 20.5859 35.165 17.0723 30.8055 17.0723C26.4461 17.0723 22.912 20.5859 22.912 24.9203C22.912 29.2546 26.4461 32.7683 30.8055 32.7683Z" fill="url(#paint0_linear_1_309)" fill-opacity="0.3"/>
<path fill-rule="evenodd" clip-rule="evenodd" d="M36.4833 25.7369C36.4408 25.7043 31.9824 27.2292 27.0907 23.0798C27.0907 23.0798 32.3697 21.2177 36.4833 25.7369Z" fill="#A22B30"/>
<path fill-rule="evenodd" clip-rule="evenodd" d="M36.4927 25.7276C36.4502 25.695 31.9834 27.2283 27.0907 23.0798C27.1047 23.0652 32.3441 22.6553 36.4927 25.7276Z" fill="#8E3127"/>
<path fill-rule="evenodd" clip-rule="evenodd" d="M27.8096 23.7937L32.5739 17.8845L33.2172 17.7552L28.0844 23.8795L27.8096 23.7937Z" fill="#00A2B6"/>
<path fill-rule="evenodd" clip-rule="evenodd" d="M30.8146 20.6107L33.0072 20.2596L36.2496 16.5531L33.2492 17.7073L30.8146 20.6107Z" fill="#6AC1B9"/>
<path fill-rule="evenodd" clip-rule="evenodd" d="M30.3756 20.6203L30.3359 18.4338L33.4243 14.4868L32.8066 17.6473L30.3756 20.6203Z" fill="#6AC1B9"/>
<path fill-rule="evenodd" clip-rule="evenodd" d="M29.0708 24.5527L35.59 16.416L36.2523 16.3075L29.3592 24.6526L29.0708 24.5527Z" fill="#00A2B6"/>
<path fill-rule="evenodd" clip-rule="evenodd" d="M33.744 19.2726L36.1894 16.3724L39.1416 15.2095L35.8993 18.916L33.744 19.2726Z" fill="#EFA684"/>
<path fill-rule="evenodd" clip-rule="evenodd" d="M33.3844 19.1686L33.3508 16.9662L36.4392 13.0192L35.7996 16.1657L33.3844 19.1686Z" fill="#EFA684"/>
<path fill-rule="evenodd" clip-rule="evenodd" d="M30.4869 25.2151L35.2513 19.3059L35.8947 19.1768L30.7616 25.301L30.4869 25.2151Z" fill="#00A2B6"/>
<path fill-rule="evenodd" clip-rule="evenodd" d="M33.3845 22.1517L35.5615 21.8052L38.8039 18.0986L35.8199 19.2512L33.3845 22.1517Z" fill="#9CCA7C"/>
<path fill-rule="evenodd" clip-rule="evenodd" d="M33.0472 22.0521L33.0132 19.8554L36.1016 15.9084L35.4717 19.0602L33.0472 22.0521Z" fill="#9CCA7C"/>
<path fill-rule="evenodd" clip-rule="evenodd" d="M34.0381 26.0167L39.2116 20.4725L39.8783 20.4083L34.4036 26.0184L34.0381 26.0167Z" fill="#00A2B6"/>
<path fill-rule="evenodd" clip-rule="evenodd" d="M37.1642 23.1622L39.2922 22.8895L42.8583 19.3998L39.8055 20.3931L37.1642 23.1622Z" fill="#F9D69C"/>
<path fill-rule="evenodd" clip-rule="evenodd" d="M36.8643 23.09L36.9534 20.8538L40.1685 17.2233L39.3799 20.4152L36.8643 23.09Z" fill="#F9D69C"/>
<path fill-rule="evenodd" clip-rule="evenodd" d="M32.2369 25.8748L31.8256 25.8029L37.2981 20.0771L37.3087 20.7927L32.2369 25.8748Z" fill="#00A2B6"/>
<path fill-rule="evenodd" clip-rule="evenodd" d="M34.5405 23.0309L34.6352 20.7998L38.0163 17.0674L37.1442 20.2714L34.5405 23.0309Z" fill="#FAC922"/>
<path fill-rule="evenodd" clip-rule="evenodd" d="M34.7133 23.3719L36.9134 23.1672L40.5983 19.5715L37.4976 20.515L34.7133 23.3719Z" fill="#FAC922"/>
<path fill-rule="evenodd" clip-rule="evenodd" d="M28.507 32.4303C26.2276 31.7413 24.3851 30.0547 23.4939 27.8818L27.1649 23.0065C31.883 26.8993 36.493 25.7277 36.493 25.7277L28.507 32.4303Z" fill="#B76141"/>
<path fill-rule="evenodd" clip-rule="evenodd" d="M28.5338 32.4384C26.2507 31.7574 24.4025 30.0765 23.5038 27.9072L24.2788 26.8962L36.3677 25.8517L28.5338 32.4384Z" fill="#AB462C"/>
<path fill-rule="evenodd" clip-rule="evenodd" d="M25.2297 30.4753C24.5893 29.8398 24.0582 29.0956 23.6666 28.2729C25.1516 28.586 29.1854 29.1216 34.8668 27.089L31.6676 29.8863C31.6676 29.8863 29.3603 31.1437 25.2297 30.4753Z" fill="#8E3127"/>
<path fill-rule="evenodd" clip-rule="evenodd" d="M31.9282 29.5011C31.6869 29.741 31.2902 29.7355 31.0421 29.4887C30.794 29.2421 30.7884 28.8477 31.0297 28.6078C31.2709 28.368 31.6676 28.3736 31.9156 28.6202C32.1638 28.867 32.1694 29.2613 31.9282 29.5011Z" fill="#AB462C"/>
</g>
</g>
<defs>
<linearGradient id="paint0_linear_1_309" x1="27.8465" y1="13.595" x2="18.614" y2="25.7194" gradientUnits="userSpaceOnUse">
<stop stop-color="white"/>
<stop offset="1" stop-opacity="0.5"/>
</linearGradient>
<clipPath id="clip0_1_309">
<rect width="87.4513" height="23.4345" fill="white" transform="translate(22.912 12.7877)"/>
</clipPath>
</defs>
</svg>
