<svg width="84" height="31" viewBox="0 0 84 31" fill="none" xmlns="http://www.w3.org/2000/svg">
<g id="Molotov 2" clip-path="url(#clip0_381_116)">
<g id="Group">
<path id="Vector" fill-rule="evenodd" clip-rule="evenodd" d="M64.9382 23.1355C59.9826 20.2449 46.4252 19.735 33.1382 20.8885C29.0621 21.2436 25.3616 21.7641 21.2802 22.55C21.2802 22.5553 21.2784 22.5588 21.2775 22.5641C21.4864 22.557 22.8364 22.39 23.4683 22.2915C22.9066 22.4436 21.303 22.7487 21.2336 22.7663C21.2336 22.7724 21.2222 22.7803 21.2266 22.7803C21.2556 22.7803 22.5397 22.5957 23.2937 22.5043C22.4159 22.7021 21.1959 22.957 21.1941 22.9614C21.1941 22.9667 21.1941 22.9667 21.1924 22.9702C21.1924 22.9729 22.3633 22.8093 23.1936 22.7267C22.4282 22.8893 21.1854 23.1962 21.1854 23.1988V23.2137C21.1836 23.2164 22.3247 23.0529 23.1602 22.9641C22.4159 23.117 21.2468 23.4458 21.2468 23.4476V23.4634C21.2486 23.4661 22.473 23.2832 23.2094 23.1891C22.4563 23.3685 21.3486 23.67 21.3504 23.6788L21.3574 23.7096C25.1509 23.0414 29.6958 22.5245 33.8738 22.3434C52.6869 21.517 62.7702 24.3593 65.2489 27.0626C65.8545 26.2854 66.8402 24.2494 64.9373 23.1373L64.9382 23.1355ZM16.5808 23.9478C16.5808 23.939 16.5808 23.9302 16.5826 23.9214C16.5826 23.9162 15.5416 24.0533 14.7218 24.2819C15.3274 24.0621 16.5475 23.7386 16.5475 23.7342C16.5475 23.7236 16.5475 23.7149 16.5457 23.7052C16.5457 23.7017 15.359 23.9074 14.6744 24.0964C15.3766 23.8529 16.486 23.5707 16.4843 23.5628C16.4843 23.5575 16.4816 23.5487 16.479 23.5399C13.2841 24.2608 10.4578 25.0309 8.06777 25.823C6.91619 26.2045 8.03441 26.7109 9.06135 26.434C11.5681 25.7588 14.0556 25.1628 16.5062 24.6458C16.5062 24.6388 16.5088 24.6335 16.5097 24.63C16.4658 24.6283 15.0746 24.8111 14.4444 25.0019C14.9562 24.8173 16.4895 24.4393 16.5615 24.434L16.5685 24.4058C16.5685 24.3997 15.3362 24.5597 14.6112 24.7601C15.4477 24.4647 16.5878 24.1922 16.5896 24.1861L16.594 24.1535C16.594 24.15 15.5232 24.296 14.6955 24.5087C15.3713 24.2511 16.5791 23.9549 16.5791 23.9461L16.5808 23.9478Z" fill="#FFC107"/>
<path id="Vector_2" fill-rule="evenodd" clip-rule="evenodd" d="M80.1335 18.6658L78.6545 22.5806L77.136 18.6658H70.3644V20.6298H72.1435V26.2685H74.2676V20.6307H77.0061L75.9283 21.0597L78.1244 26.2694H79.1759L82.1584 19.1239V18.6667H80.1335V18.6658ZM69.1356 24.0549C68.451 24.0549 67.955 24.5244 67.955 25.1714C67.955 25.8088 68.4518 26.2703 69.1365 26.2703C69.8088 26.2703 70.2968 25.8088 70.2968 25.1714C70.2968 24.5358 69.7983 24.0549 69.1382 24.0549H69.1356ZM20.5447 20.9489C20.629 19.3313 21.0082 15.7673 21.5102 12.9225C21.806 11.2504 22.3994 8.45123 22.7215 6.87847C22.7584 6.70616 22.8444 6.10484 22.5433 5.74175C22.3923 5.55714 21.9272 5.23186 21.4462 5.02526C21.4374 5.01911 21.4242 5.01471 21.411 5.0112C20.7791 4.76065 20.2963 4.85471 19.8162 5.07977C18.9473 5.48769 18.21 6.30791 17.6763 6.97605C16.1465 8.89431 14.9203 11.9203 14.1479 14.1181C14.4375 12.6025 15.468 8.18222 15.6426 7.04375C15.6628 6.91188 15.8024 6.53385 15.6997 6.31934C15.5575 6.02483 15.0098 5.5967 14.6218 5.43582C14.5209 5.3945 14.4173 5.34966 14.3103 5.30746L14.3015 5.30483C13.7195 5.1079 13.35 5.19494 12.8673 5.43846C12.0053 5.8745 11.2637 6.70968 10.7537 7.40419C9.33443 9.33212 7.98713 13.0658 7.28144 15.3621C7.36921 14.8082 7.77559 12.1884 7.82299 11.9071C8.07402 10.4178 9.05795 4.81076 9.25719 3.42349C9.27738 3.29162 9.36252 2.89601 9.28177 2.7659C9.1308 2.51975 8.6542 2.39139 8.3426 2.3615C7.93446 2.32106 7.17874 2.28941 6.81887 2.45557L6.81185 2.45821L6.80307 2.46084C6.80307 2.46084 6.80132 2.46348 6.79956 2.46348H6.79518C6.79342 2.46612 6.79079 2.46788 6.78815 2.46876C6.76533 2.48018 6.74427 2.49337 6.72408 2.50568C5.87795 3.03579 4.47535 5.03757 4.0558 5.75318C3.1965 7.21518 2.84366 7.83672 2.43113 8.63057C2.15552 9.15805 2.61984 10.5893 3.17983 9.70311C3.90219 8.5664 4.97741 7.02177 5.88849 6.01077C5.43207 8.99805 4.16376 18.752 3.97856 19.9889C3.88201 20.6333 3.39487 23.5494 4.56927 23.4158C4.5956 23.4158 4.62895 23.4105 4.66582 23.4008C5.04587 23.3041 6.48095 22.7151 6.6091 22.1683C7.27266 19.3322 9.44766 11.6979 12.5179 8.56816C12.0642 10.977 11.3857 15.4535 11.2847 16.3449C11.125 17.7674 10.7256 20.6562 11.6674 20.6131C11.6981 20.6131 11.7324 20.6096 11.7771 20.5999C12.159 20.5164 13.6133 19.9793 13.7468 19.4342C14.3752 16.8707 16.6608 10.8935 19.4467 8.1831C19.2712 9.12728 19.2053 9.44025 19.0201 10.3756C18.4347 13.3295 17.3051 19.2162 17.2735 21.8193C17.2471 23.9292 18.21 25.6083 20.1173 26.1499C20.4912 26.2554 21.8552 26.163 21.5848 25.7191C20.6983 24.265 20.4613 22.6307 20.5465 20.9472L20.5447 20.9489ZM26.6748 18.5208C27.8878 18.2711 29.0121 17.5344 30.0917 16.0241C31.0195 14.7247 31.4987 13.4069 31.8437 11.7761C31.9174 11.4288 31.9736 11.1097 32.0175 10.8143C32.6723 10.5198 33.2814 10.0407 33.7598 9.33739C33.3867 11.5352 33.1963 13.0262 33.1278 13.9722C33.0339 15.3436 33.1629 16.2983 33.4921 17.0447C33.8668 17.9019 34.5427 18.3309 35.3089 18.4337C36.4017 18.5832 37.1346 18.0531 38.0088 17.2144C38.1343 17.0948 38.259 16.9594 38.3836 16.81C38.9427 17.981 40.1303 18.6737 41.7506 18.3511C42.9645 18.1111 44.0958 17.3841 45.1886 15.8808C46.1278 14.5884 46.6193 13.2759 46.9774 11.6477C47.0511 11.3093 47.1091 10.9972 47.1565 10.7071C47.8657 10.4345 48.5406 9.9774 49.0664 9.29607C48.6302 11.3304 48.373 12.686 48.2852 13.6038C48.1536 14.9682 48.2589 15.9309 48.5687 16.7001C48.9242 17.5827 49.593 18.0601 50.3628 18.221C51.4573 18.4496 52.285 17.9432 53.1101 17.1986C53.2549 17.0693 53.3997 16.9225 53.5454 16.7643C54.0501 18.0584 55.2781 18.8566 57.0002 18.5225C58.2167 18.2896 59.3498 17.5704 60.4479 16.083C61.3932 14.8029 61.8873 13.5001 62.2542 11.8842C62.3288 11.5546 62.3859 11.2513 62.4333 10.9699C63.3171 10.5989 63.9026 9.93256 64.2835 8.92332C64.4705 8.4275 64.345 7.16155 64.0614 7.79804C63.4664 9.13431 62.7273 9.71014 61.9391 9.90179C62.1533 9.77344 62.3692 9.60817 62.5781 9.3963C62.5781 8.54706 62.4166 8.02749 62.2595 7.66705C61.7399 6.47143 60.5242 6.53649 60.2276 6.65957C60.2363 5.92989 59.8896 5.48329 58.7003 5.69604C58.0069 5.81912 57.3082 6.09165 56.7324 6.52506C55.6616 7.33122 54.7154 8.69123 54.2441 9.83762C53.7438 11.0526 53.3892 12.2482 53.2391 13.4922C53.1601 14.1392 53.1601 14.8988 53.2593 15.6021C53.1557 15.7076 53.0486 15.806 52.9363 15.8983C52.6098 16.1709 52.0735 16.5005 51.6899 16.4434C50.9026 16.3238 51.0106 14.9137 51.036 14.366C51.0904 13.21 51.488 11.5836 51.6522 10.7088C51.7926 9.95542 52.2841 7.53518 53.0776 4.50658C56.441 4.30789 59.2656 4.72021 60.9973 5.08944C61.6688 5.23362 62.4719 5.46483 63.3119 5.78835C65.3807 6.66572 65.3105 9.48333 65.0796 11.1475C64.5644 14.8785 63.1969 17.5854 63.1688 18.0707C63.16 18.2351 63.1161 18.7599 63.4558 19.1766C63.6279 19.3876 64.0263 19.7331 64.5179 20.0346C65.1797 20.4267 65.6378 20.4338 66.0785 20.316C67.1203 20.0276 70.9674 16.5955 73.16 13.0104C74.358 11.0324 75.1436 8.83014 75.1401 8.09167C75.1348 7.25386 71.9232 7.48507 71.8381 8.75277C71.6941 10.8011 70.5829 13.3198 68.9995 15.2742C67.9261 16.5946 66.7499 17.6671 65.8722 18.1023C66.7104 15.7445 67.7707 12.2315 68.0016 8.88904C68.0806 7.78309 68.0217 6.14264 67.3301 5.10702C66.1381 3.32239 62.593 2.467 58.028 2.48546C56.5148 2.48546 54.9735 2.58744 53.5077 2.75799C53.7886 1.55974 53.9773 0.826542 54.0062 0.67709C54.0615 0.398406 53.5849 0.281482 52.6484 0.307856C51.6855 0.33423 51.0386 0.481924 50.8754 1.14655C50.684 1.936 50.5243 2.53997 50.3558 3.25118C49.9204 3.33909 49.5018 3.42964 49.105 3.52547C48.0289 3.78393 47.3189 3.99844 46.6562 4.28416C46.0374 4.50218 45.5976 6.03538 46.1471 5.83846C47.4233 5.38395 48.5082 5.11757 49.7721 4.89252L50.0029 4.85559C49.9415 5.13691 49.8888 5.38043 49.8581 5.51494C49.2261 8.31936 47.784 9.36201 46.6193 9.58179C46.8422 9.44992 47.0669 9.27761 47.2881 9.05431C47.2732 8.25167 47.1161 7.75496 46.9634 7.40507C46.4394 6.20418 45.2237 6.27451 44.927 6.39846C44.9341 5.66527 44.5847 5.21516 43.3954 5.43318C42.7038 5.55977 42.006 5.83494 41.4319 6.27363C40.3638 7.08858 39.4246 8.46266 38.9568 9.61696C38.4609 10.8407 38.1124 12.046 37.9667 13.3005C37.8816 14.0328 37.8965 14.9093 38.0387 15.6873C37.9614 15.77 37.8807 15.85 37.799 15.9273C37.4831 16.2227 36.9582 16.592 36.5764 16.5621C35.7934 16.5005 35.8628 15.0825 35.8742 14.5339C35.8988 13.3735 36.2516 11.7787 36.3921 10.8943C36.6615 9.11497 38.2879 0.964566 38.3792 0.476649C38.4275 0.191811 37.9509 0.109173 37.0231 0.204119C36.0691 0.302581 35.4327 0.49599 35.2888 1.17116C34.856 3.2125 34.5954 4.79317 34.3013 6.33605C33.6386 8.45475 32.5371 9.38663 31.5856 9.68025C31.77 9.56157 31.9543 9.41652 32.1333 9.23454C32.1175 8.40112 31.9525 7.88947 31.7937 7.53342C31.2582 6.33605 30.0435 6.41693 29.7486 6.54264C29.7486 5.80945 29.3975 5.36197 28.2081 5.58967C27.5174 5.72153 26.8213 6.00286 26.2508 6.44506C25.1905 7.26792 24.2637 8.64904 23.8055 9.80773C23.321 11.0359 22.9822 12.2447 22.8488 13.4983C22.7364 14.5357 22.8251 15.8614 23.1911 16.7792C23.7124 18.0821 24.9518 18.8759 26.6739 18.5217L26.6748 18.5208ZM56.3471 11.7234C56.7377 10.5172 57.0932 9.83322 57.748 9.06662C58.2456 8.482 59.0268 8.21035 59.3516 8.24024C59.1497 8.55057 59.2989 8.7475 59.6149 8.81168C59.966 8.8864 60.2679 9.11322 60.3768 9.69696C59.8896 9.3875 59.3217 11.1827 59.9862 11.2855C60.6006 11.3805 61.3072 11.3357 61.9839 11.1317C61.445 11.413 60.8499 11.5642 60.2723 11.6003C60.0301 12.9823 59.5526 14.2579 58.9294 15.1546C58.0727 16.3854 57.145 16.9023 56.5771 16.4786C55.6994 15.828 55.5967 14.0451 56.3489 11.7242L56.3471 11.7234ZM41.0677 11.508C41.4539 10.2921 41.8067 9.60377 42.4571 8.82838C42.953 8.23936 43.7333 7.96068 44.0581 7.99145C43.8562 8.30266 44.0054 8.50134 44.3214 8.5664C44.6506 8.63321 44.9358 8.83541 45.0631 9.33651C44.633 9.19322 44.1415 10.8926 44.7603 10.9805C45.3115 11.0614 45.9294 11.0403 46.5456 10.8943C46.0479 11.1422 45.5213 11.2697 45.0008 11.2987C44.7691 12.7176 44.2916 14.0328 43.6605 14.9533C42.8091 16.1946 41.884 16.7177 41.3135 16.2939C40.434 15.6416 40.3243 13.8473 41.0677 11.508ZM25.9331 11.6838C26.3079 10.4653 26.6546 9.77344 27.2988 8.99365C27.7903 8.39936 28.5671 8.11452 28.8928 8.14354C28.6953 8.45651 28.8463 8.65343 29.1622 8.71497C29.4958 8.78178 29.7837 8.98574 29.9127 9.50003C29.5265 9.46838 28.8331 11.0253 29.6002 11.1405C30.2085 11.2328 30.8782 11.1959 31.5268 10.9963C30.994 11.2864 30.4226 11.4315 29.8609 11.4605C29.6388 12.8759 29.1745 14.1858 28.5531 15.1071C27.714 16.3555 26.7924 16.8856 26.2183 16.4663C25.3336 15.821 25.209 14.0275 25.9305 11.6838H25.9331Z" fill="white"/>
</g>
</g>
<defs>
<clipPath id="clip0_381_116">
<rect width="83.3838" height="30.7695" fill="white" transform="translate(0.364014 0.166504)"/>
</clipPath>
</defs>
</svg>
